<svg xmlns="http://www.w3.org/2000/svg" xmlns:xlink="http://www.w3.org/1999/xlink" width="108" height="98" viewBox="0 0 108 98">
  <defs>
    <filter id="Path_2" x="0" y="0" width="108" height="98" filterUnits="userSpaceOnUse">
      <feOffset dy="3" input="SourceAlpha"/>
      <feGaussianBlur stdDeviation="3" result="blur"/>
      <feFlood flood-opacity="0.161"/>
      <feComposite operator="in" in2="blur"/>
      <feComposite in="SourceGraphic"/>
    </filter>
    <filter id="Path_1" x="17.776" y="15.08" width="72.464" height="68.56" filterUnits="userSpaceOnUse">
      <feOffset dy="3" input="SourceAlpha"/>
      <feGaussianBlur stdDeviation="3" result="blur-2"/>
      <feFlood flood-opacity="0.161"/>
      <feComposite operator="in" in2="blur-2"/>
      <feComposite in="SourceGraphic"/>
    </filter>
  </defs>
  <g id="Group_19" data-name="Group 19" transform="translate(123 -10)">
    <g transform="matrix(1, 0, 0, 1, -123, 10)" filter="url(#Path_2)">
      <g id="Path_2-2" data-name="Path 2" transform="translate(99 6) rotate(90)" fill="none">
        <path d="M60,0,80,45,60,90H20L0,45,20,0Z" stroke="none"/>
        <path d="M 21.94961166381836 3 L 3.282943725585938 45 L 21.94961166381836 87 L 58.05038452148438 87 L 76.71705627441406 45 L 58.05038452148438 3 L 21.94961166381836 3 M 20 0 L 60 0 L 80 45 L 60 90 L 20 90 L 0 45 L 20 0 Z" stroke="none" fill="#fff"/>
      </g>
    </g>
    <g transform="matrix(1, 0, 0, 1, -123, 10)" filter="url(#Path_1)">
      <path id="Path_1-2" data-name="Path 1" d="M24.832,12.08a9.574,9.574,0,0,1,6.3,1.984,6.471,6.471,0,0,1,2.4,5.248A5.352,5.352,0,0,1,32.96,21.9a2.252,2.252,0,0,1-1.536,1.248,9.16,9.16,0,0,0-3.008-3.808,7.287,7.287,0,0,0-4.352-1.376,6.43,6.43,0,0,0-4.832,1.952,6.926,6.926,0,0,0-1.888,5.024q0,3.264,2.176,3.968,1.536.512,2.56.928a6.1,6.1,0,0,1,1.6.9,2.694,2.694,0,0,1,.8,1.024,3.443,3.443,0,0,1,.224,1.312,2.875,2.875,0,0,1-.8,2.176,3.15,3.15,0,0,1-2.272.768,3.748,3.748,0,0,1-2.176-.576,12.635,12.635,0,0,1-1.536-1.248,16.26,16.26,0,0,0-1.472-1.248,3.11,3.11,0,0,0-1.92-.576,4.348,4.348,0,0,0-3.712,2.208,9.772,9.772,0,0,0-1.472,5.536,13.689,13.689,0,0,0,1.44,6.208,15.806,15.806,0,0,0,3.968,5.024,18.927,18.927,0,0,0,5.92,3.36,21.462,21.462,0,0,0,7.3,1.216,20.148,20.148,0,0,0,6.816-1.152,18.919,18.919,0,0,0,5.664-3.136,15.183,15.183,0,0,0,3.84-4.608A11.606,11.606,0,0,0,45.7,41.456a9.986,9.986,0,0,0-.7-3.744,9.765,9.765,0,0,0-1.888-3.04,8.564,8.564,0,0,0-6.368-2.752,7.743,7.743,0,0,0-5.056,1.568,5.136,5.136,0,0,0-1.92,4.192,5.2,5.2,0,0,0,.992,3.232,2.986,2.986,0,0,0,2.464,1.312q1.472,0,1.472-1.536a8.55,8.55,0,0,0-.064-.992,8.55,8.55,0,0,1-.064-.992,2.536,2.536,0,0,1,.7-1.824,2.372,2.372,0,0,1,1.792-.736,2.907,2.907,0,0,1,2.3,1.152,4.252,4.252,0,0,1,.96,2.816,4.606,4.606,0,0,1-.512,2.144A5.465,5.465,0,0,1,38.4,43.984a7.235,7.235,0,0,1-2.112,1.184,7.346,7.346,0,0,1-2.56.448,6.69,6.69,0,0,1-2.848-.608,6.5,6.5,0,0,1-2.24-1.7,8.3,8.3,0,0,1-1.472-2.592,10.154,10.154,0,0,1,.384-7.52,9.9,9.9,0,0,1,2.56-3.3,11.889,11.889,0,0,1,3.9-2.144,15.614,15.614,0,0,1,5.024-.768h6.72a10.583,10.583,0,0,0,6.144-1.6,4.973,4.973,0,0,0,2.3-4.288,4.453,4.453,0,0,0-1.024-2.912,2.955,2.955,0,0,0-2.3-1.248q-1.088,0-1.344.7a13.878,13.878,0,0,0-.448,1.5,4.529,4.529,0,0,1-.672,1.5q-.48.7-2.08.7A3,3,0,0,1,43.072,18.1a4.04,4.04,0,0,1,1.6-3.36,6.9,6.9,0,0,1,4.352-1.248,9.5,9.5,0,0,1,3.68.7,8.672,8.672,0,0,1,4.832,4.832,9.5,9.5,0,0,1,.7,3.68,9.23,9.23,0,0,1-.928,4.128,10.346,10.346,0,0,1-2.56,3.3,12.009,12.009,0,0,1-3.9,2.208,16,16,0,0,1-4.96.864l-.128.256A7.282,7.282,0,0,1,48.48,37.1a15.649,15.649,0,0,1,1.056,5.888,16.7,16.7,0,0,1-1.824,7.68,20,20,0,0,1-4.96,6.24A23.751,23.751,0,0,1,35.328,61.1a26.936,26.936,0,0,1-9.152,1.536,26.12,26.12,0,0,1-8.9-1.472,22.664,22.664,0,0,1-7.1-4.032,18.485,18.485,0,0,1-4.7-6.048,17.11,17.11,0,0,1-1.7-7.584,15.638,15.638,0,0,1,2.912-9.568,13.753,13.753,0,0,1,7.9-5.216,10.907,10.907,0,0,1-.8-2.784A19.326,19.326,0,0,1,13.5,22.7a10.908,10.908,0,0,1,.832-4.32,9.818,9.818,0,0,1,2.336-3.36,10.492,10.492,0,0,1,3.584-2.176A13.12,13.12,0,0,1,24.832,12.08Z" transform="translate(23 9)" fill="#fff"/>
    </g>
  </g>
</svg>
