<svg xmlns="http://www.w3.org/2000/svg" xmlns:xlink="http://www.w3.org/1999/xlink" width="602.648" height="223.019" viewBox="0 0 602.648 223.019">
  <defs>
    <filter id="text1719-0" x="134.532" y="163.599" width="333.894" height="59.42" filterUnits="userSpaceOnUse">
      <feOffset dy="3" input="SourceAlpha"/>
      <feGaussianBlur stdDeviation="3" result="blur"/>
      <feFlood flood-opacity="0.161"/>
      <feComposite operator="in" in2="blur"/>
      <feComposite in="SourceGraphic"/>
    </filter>
  </defs>
  <g id="Group_21" data-name="Group 21" transform="translate(815 166.711)">
    <path id="path5673" d="M1688.277,264.817q-.638.009-1.306.079a14.653,14.653,0,0,0-9.3,4.735,14.153,14.153,0,0,0-4.3,9.22,10.029,10.029,0,0,0,3.143,8.442,10.693,10.693,0,0,0,8.821,2.676,14.924,14.924,0,0,0,9.3-4.578,13.93,13.93,0,0,0,4.46-9.238,9.784,9.784,0,0,0-3.306-8.424,10.121,10.121,0,0,0-7.506-2.912Zm-49.471,2.488q-3.238.046-6.789.419-14.738,1.547-29.91,9.751a87.976,87.976,0,0,0-25.386,19.717q-10.033,11.494-10.767,22.708a25.97,25.97,0,0,0,.152,5.25,40.643,40.643,0,0,0-24.243,12.071,71.566,71.566,0,0,0-15.708,24.044q-5.222,13.547-5.934,24.429-.845,12.931,5.386,18.386,6.241,5.3,18.05,4.057,23.617-2.478,29.509-26.275a61.472,61.472,0,0,1-10.107,7.168,26.382,26.382,0,0,1-9.871,3.542q-9.706,1.018-8.851-12.071a75.559,75.559,0,0,1,4.29-18.93,90.942,90.942,0,0,1,9.3-19.459q5.368-8.394,10.223-8.9,4.368-.458,3.943,6.007a29.1,29.1,0,0,1-2.549,9.508,8.224,8.224,0,0,0,5.54,1.3,9.179,9.179,0,0,0,6.17-3.467q2.774-3.11,3.143-8.787a15.8,15.8,0,0,0-.4-4.921,5.483,5.483,0,0,0-.175-.649c-.091-.289-.2-.566-.308-.841a18.2,18.2,0,0,1-1.182-8.132q1.316-20.15,14.273-32.645,13.134-12.515,35.062-14.817,11.144-1.169,16.279,4.9t4.451,16.588a55.265,55.265,0,0,1-5.395,19.708,57.918,57.918,0,0,1-12.579,17.679q-7.625,7.413-16.3,9.018l16.585-59.863-26.831,6.3-31.724,114,25.883-2.714,14.225-51.09.9-.093a61.509,61.509,0,0,0,27.765-9.7,63.482,63.482,0,0,0,19.323-19.776q7.18-11.543,7.923-22.933a28.851,28.851,0,0,0-3.551-16.681q-3.979-7.413-13.2-11.145A42.641,42.641,0,0,0,1638.806,267.3Zm-98.413,13.431-25.88,2.717-45.575,96.49,10.166-92.776a38.575,38.575,0,0,0-13.5-1.018q-13.3,1.4-27.239,9.819a83.309,83.309,0,0,0-23.1,20.173q-9.157,11.75-9.866,22.613-1.042,15.945,18.191,13.928a9.489,9.489,0,0,0-1.063-2.848q-1.1-2.321-.664-8.978.973-14.894,9-25.656a51.991,51.991,0,0,1,22.159-16.769L1399.5,423.6l14.379-1.508,35.178-82.175-8.758,79.4,24.624-2.583,38.929-82.22-16.642,79.88,25.883-2.714Zm441.55,3.5c-.649.022-1.319.071-2.007.143q-10.838,1.137-19.5,10.817l2.315-8.388-23.3,2.445-14.624,52.9a35.433,35.433,0,0,1-5.622,10.15q-3.5,4.44-8.032,4.914-6.632.7-6.191-6.084a20.577,20.577,0,0,1,.977-5.116l15.15-54.838-23.3,2.444-2.324,8.544.072-1.1a5.563,5.563,0,0,0-2.855-5.494q-3.091-1.868-9.724-1.172-13.1,1.375-23.234,11.365a71.366,71.366,0,0,0-15.656,23.255,80.739,80.739,0,0,0-6.089,22.726,97.128,97.128,0,0,1-10.143,7.324,24.83,24.83,0,0,0,1.039-6.059q.278-4.258.088-13.635-.406-23.293.1-43.393l-24.146,5.667q-5.061,13.53-10.495,25.375A248.519,248.519,0,0,1,1782,350.414a18.63,18.63,0,0,0-6.356,6.3,17.873,17.873,0,0,0-3.175,9.261c-.012.183-.012.363-.019.544-.292.394-.582.768-.871,1.116a11.807,11.807,0,0,1-7.982,4.127q-3.559.373-4.9-1.209a6.486,6.486,0,0,1-1.138-4.737,39.983,39.983,0,0,1,1.444-7.356q1.441-4.85,3.055-9.873,2.628-8.263,4.122-13.9a56.529,56.529,0,0,0,1.8-10.37q.587-8.989-3.977-12.9t-12.814-3.039q-10.838,1.137-19.5,10.817l2.315-8.388-23.3,2.444L1696.4,365.035l-.086.009a27.964,27.964,0,0,1-6.483,10.7q-4.291,4.209-8.982,4.7-3.559.373-5.093-.719-1.363-1.266-1.156-4.42a20.552,20.552,0,0,1,.975-5.114l15.15-54.841-23.293,2.445-14.306,51.775a57.415,57.415,0,0,0-1.964,10.386q-.618,9.462,3.764,13.7,4.544,4.222,12.309,3.408,9.221-.968,18.994-7.946a33.35,33.35,0,0,0,4.665-4.163l-2.474,8.946,23.293-2.445,14.307-51.775a36.471,36.471,0,0,1,5.855-10.953q3.5-4.44,7.71-4.88,5.823-.611,5.3,7.431a47.439,47.439,0,0,1-1.7,8.792q-1.483,5.481-3.136,11.136-.4,1.138-1.624,5.182-1.066,4.027-2.154,8.37a41.285,41.285,0,0,0-1.293,7.5q-.494,7.569,3.694,12.3,4.362,4.554,14.229,3.517,8.411-.883,16.558-7.531a32.429,32.429,0,0,0,4.923-5.157c.015.031.028.062.043.093a15.642,15.642,0,0,0,7.433,6.737q5.153,2.278,12.916,1.465a48.841,48.841,0,0,0,13.894-3.651,35.932,35.932,0,0,0,12.121-8.476,123.776,123.776,0,0,0,16.962-13.012c.2,6.329,1.839,11.015,4.955,14q5.745,5.505,14.964,4.538a26.894,26.894,0,0,0,13.846-5.367,58.1,58.1,0,0,0,11.2-11.669q.345,7.012,4.143,10.372,3.969,3.186,10.762,2.472,8.9-.934,18.023-7.841a32.178,32.178,0,0,0,3.812-3.456l-2.3,8.309,23.293-2.445,14.307-51.775a36.459,36.459,0,0,1,5.855-10.95q3.5-4.44,7.71-4.882,5.823-.611,5.3,7.431a47.478,47.478,0,0,1-1.7,8.794q-1.483,5.481-3.136,11.134-.4,1.138-1.624,5.184-1.066,4.027-2.154,8.37a41.273,41.273,0,0,0-1.292,7.5q-.5,7.727,3.048,12.365t12.127,3.739a20.852,20.852,0,0,0,12.075-5.34q5.283-4.626,6.778-12.769-1.518,1.1-5.4,1.506-3.559.373-4.9-1.209a6.486,6.486,0,0,1-1.138-4.737,39.986,39.986,0,0,1,1.444-7.354q1.441-4.85,3.054-9.876,2.628-8.263,4.123-13.9a56.52,56.52,0,0,0,1.8-10.37q.587-8.989-3.977-12.894-3.994-3.418-10.808-3.184Zm-93.76,19.357a4.7,4.7,0,0,1,4.061,1.576,5.1,5.1,0,0,1,1.36,3.773L1883.512,345.4a23.984,23.984,0,0,1-6.168,10.828q-4.119,4.034-8.163,4.458a7.2,7.2,0,0,1-5.68-1.6q-2.121-1.97-1.605-9.855a73.66,73.66,0,0,1,4.1-18.44,68.34,68.34,0,0,1,9.241-18.511q5.66-7.955,12.132-8.635c.283-.03.555-.046.819-.052Zm-83.376,14.98q.083,6.1.526,23.908a122.331,122.331,0,0,1,.107,13.146q-.5,7.727-4.776,11.619a17.53,17.53,0,0,1-10.256,4.522q-5.176.543-7.427-1.882c-1.087-1.271-1.667-3.206-1.755-5.789.228-.465.45-.975.676-1.456a4.638,4.638,0,0,0,3.594.717,7.493,7.493,0,0,0,5.168-2.891,9.305,9.305,0,0,0,2.454-5.583,4.845,4.845,0,0,0-3.361-5.129q10.354-18.314,15.05-31.18Z" transform="translate(-2214.505 -431.527)" fill="#fff"/>
    <path id="path5671" d="M1692.689,270.042q-.638.009-1.306.079a14.654,14.654,0,0,0-9.3,4.735,14.154,14.154,0,0,0-4.3,9.22,1.984,1.984,0,0,0,0,.265,8.385,8.385,0,0,0,.769.823c1.72,1.6,3.625,2.222,6.542,1.916a11.817,11.817,0,0,0,7.531-3.728l.019-.016.019-.018a10.821,10.821,0,0,0,3.6-7.354,6.577,6.577,0,0,0-2.109-5.846,12.163,12.163,0,0,0-1.454-.077Zm-49.471,2.488c-1.712.024-3.509.138-5.352.3,5.118.51,9.383,2.445,12.359,5.964a22.4,22.4,0,0,1,4.9,11.671,26.258,26.258,0,0,1,1.687,12.016,55.265,55.265,0,0,1-5.395,19.708,57.916,57.916,0,0,1-12.579,17.679c-.732.712-1.474,1.371-2.22,2a57.015,57.015,0,0,0,6.773-3.794s0,0,.012,0a60.5,60.5,0,0,0,18.434-18.858l.012-.012.012-.014c4.584-7.369,7.032-14.537,7.492-21.588a25.826,25.826,0,0,0-3.168-15.041l-.023-.039-.022-.041a20,20,0,0,0-7.585-7.773,44.173,44.173,0,0,0-15.327-2.179Zm58.838,2.619c.012.4.012.795-.016,1.2a17.053,17.053,0,0,1-5.308,11.1,18.042,18.042,0,0,1-11.039,5.413,15.587,15.587,0,0,1-4.572-.177,10.721,10.721,0,0,0,8.624,2.51,14.924,14.924,0,0,0,9.3-4.578,13.93,13.93,0,0,0,4.46-9.238,10.157,10.157,0,0,0-1.444-6.229Zm-67.569,3.333q-1.166.036-2.453.17c-14.132,1.483-25.121,6.183-33.357,14.028l-.012,0c-8.1,7.822-12.54,17.884-13.379,30.731a14.62,14.62,0,0,0,1.043,7.039l.012.02c.1.242.2.5.3.821.062.185.1.366.15.549a20.364,20.364,0,0,1-.041-3.392q1.316-20.15,14.273-32.645c.982-.936,2.007-1.823,3.063-2.674l1.524-5.472,16.293-3.826a69.9,69.9,0,0,1,9.311-2.184l7.667-1.8-.27.971a23.582,23.582,0,0,1,5.98.51c-2.31-1.988-5.518-2.991-10.1-2.85Zm-89.683,7.479-2.533.265-13.077,62.73q1.7-2.788,3.612-5.438Zm-8.6.9-17.284,1.814-45.575,96.49,1.091-9.957-2.821,5.973-5.508-1.556,9.685-88.4a37.171,37.171,0,0,0-5.78.143,56.567,56.567,0,0,0-11.889,2.635l-4.98,11.649c1.386-.706,2.8-1.384,4.286-2l-49.666,116.165,4.177-.44,34.507-80.608,5.553,1.46-1.238,11.234,2.708-6.327-7.8,70.7,17.386-1.823,38.23-80.746,5.465,1.835-2.912,13.978,4.424-9.345-14.81,71.088,17.288-1.814Zm102.921,2.159-2.984.7L1622.4,339.345a27.99,27.99,0,0,0,3.225-1.578Zm348.883.44c-.539-.018-1.09-.017-1.658,0-.649.022-1.319.071-2.007.143a28.4,28.4,0,0,0-16.01,7.345,7.447,7.447,0,0,1,6.642,2.767,10.5,10.5,0,0,1,1.621,6.47q1.726,1.782,1.431,6.32a47.478,47.478,0,0,1-1.7,8.794q-1.483,5.481-3.136,11.134-.4,1.138-1.624,5.184-1.066,4.027-2.154,8.37a41.285,41.285,0,0,0-1.293,7.5,26.428,26.428,0,0,0,.016,3.805,10.867,10.867,0,0,0,.982,1.571c1.628,2.126,4.36,3.158,9.52,2.617a17.771,17.771,0,0,0,10.438-4.61l.014-.014.016-.014a15.112,15.112,0,0,0,3.395-4.506,3.013,3.013,0,0,1-.651-.558,4.272,4.272,0,0,1-.644-1.054,7.342,7.342,0,0,1-5.923-2.293,9.282,9.282,0,0,1-1.821-6.8,41.838,41.838,0,0,1,1.54-7.925l.012-.034.012-.034q1.449-4.878,3.07-9.928,2.611-8.209,4.079-13.749v0a53.808,53.808,0,0,0,1.714-9.828c.347-5.311-.746-8.446-2.782-10.318a19.149,19.149,0,0,0-3.1-.349Zm-313.313.324a35.554,35.554,0,0,1,.433,8.2,48.478,48.478,0,0,1-4.318,16.554l3.513-.37a43.527,43.527,0,0,0,2.265-11.152,30.161,30.161,0,0,0-1.894-13.229Zm-45,1.449-17.4,4.084-29.259,105.146,16.8-1.762,14.227-51.094,2.862-.295c2.166-.227,4.268-.57,6.329-.993l.32-1.152a29.494,29.494,0,0,1-4.855,1.347l-4.565.844Zm-148.145.719-7.789,71.093,2.612-5.531,7.136-65.124C1482.86,292.227,1482.207,292.085,1481.555,291.954Zm476.534,1.034-14.225,1.492-14.624,52.9a35.433,35.433,0,0,1-5.621,10.15,14.474,14.474,0,0,1-3.764,3.451l2.456,1.388-1.163,4.2,17.091-1.794,13.805-49.967.036-.1a39.277,39.277,0,0,1,6.324-11.792,15.784,15.784,0,0,1,7.245-5.417l1.224-4.438a37.761,37.761,0,0,0-4.22,4.068l-4.962-2.71.4-1.438Zm-368.255.9a81.059,81.059,0,0,0-8.7,8.529q-10.033,11.494-10.767,22.708a25.952,25.952,0,0,0,.152,5.25c-.178.024-.352.054-.528.079a6.027,6.027,0,0,1,3.814,2.435,9.773,9.773,0,0,1,1.254,6.1c1.145.861,1.63,2.673,1.449,5.451a21.217,21.217,0,0,1-.308,2.392,6.63,6.63,0,0,0,2.9-2.15l.024-.029.028-.029c1.308-1.466,2.194-3.693,2.413-7.043a12.891,12.891,0,0,0-.315-4.023l-.016-.066-.014-.066a2.636,2.636,0,0,0-.081-.3l-.012-.029-.012-.032c-.05-.16-.128-.367-.234-.63l-.036-.093-.031-.1a21.968,21.968,0,0,1-1.313-9.2c.74-11.327,4.2-21.138,10.338-29.15Zm409.794,1.975a29.153,29.153,0,0,1,.048,4.644,59.243,59.243,0,0,1-1.887,10.91v.016q-1.52,5.742-4.161,14.037v.007q-1.6,4.974-3.023,9.776a38.351,38.351,0,0,0-1.345,6.755,3.876,3.876,0,0,0,.456,2.671,2.257,2.257,0,0,0,1.27.252,52.952,52.952,0,0,1,1.179-5.243q1.441-4.85,3.054-9.876,2.628-8.263,4.123-13.9a56.52,56.52,0,0,0,1.8-10.37,18.688,18.688,0,0,0-1.51-9.678Zm-74.1.542-2.871.3L1908.8,346.862l-.02.066a17.646,17.646,0,0,0-.839,4.4c-.117,1.793.251,2.443.465,2.653a1.981,1.981,0,0,0,1.229.383,20.122,20.122,0,0,1,.744-3.118l15.15-54.838Zm-9.073.952-14.223,1.492-2.324,8.544.072-1.1a5.566,5.566,0,0,0-1.374-4.284l-.252.925-5.689-.952a6.4,6.4,0,0,1,1.875,1.363,8.245,8.245,0,0,1,2.021,5.792l-.019.3-.177.639a3.815,3.815,0,0,1,.293.324,5.1,5.1,0,0,1,1.361,3.773l-10.093,36.454a27.055,27.055,0,0,1-2.417,5.9l.166,3.383a14.947,14.947,0,0,0,1.234,5.662c.073-.1.149-.195.222-.295.015.3.048.587.072.88a7.9,7.9,0,0,0,1.6,2.036c1.929,1.521,4.587,2.235,8.574,1.816,5.295-.556,10.8-2.9,16.574-7.27.1-.074.193-.166.29-.243-2.118-.043-3.551-.812-4.284-2.32a7.911,7.911,0,0,1-5.619-2.057c-1.85-1.818-2.366-4.443-2.188-7.17a23.513,23.513,0,0,1,1.116-5.835l-.041.134,13.229-47.888Zm-25.958,2.077q-1.437.014-3.1.188-13.1,1.375-23.234,11.365a71.366,71.366,0,0,0-15.656,23.255,80.739,80.739,0,0,0-6.089,22.726c-.537.453-1.123.92-1.719,1.39v.1a27.086,27.086,0,0,0,.785,5.919c.222-.2.448-.4.669-.6.037,1.161.14,2.247.274,3.3a10.925,10.925,0,0,0,2.336,3.383c3.209,3.075,7.135,4.325,12.651,3.746a23.857,23.857,0,0,0,12.384-4.785,49.6,49.6,0,0,0,4.1-3.553c-.1.014-.2.039-.306.05a7.2,7.2,0,0,1-5.68-1.6,3.381,3.381,0,0,1-.56-.719,9.971,9.971,0,0,1-5.681-2.3l-.045-.039-.043-.041a8.4,8.4,0,0,1-2.352-5.109,31.717,31.717,0,0,1-.175-7.061,76.275,76.275,0,0,1,4.245-19.184,71.228,71.228,0,0,1,9.637-19.277v0c4.05-5.684,8.787-9.253,14.177-9.819.367-.039.72-.06,1.052-.068a8.457,8.457,0,0,1,4.485,1.283l.072-1.1a4.3,4.3,0,0,0-.064-1.352,21.159,21.159,0,0,0-2.17-.093Zm-56.988,1.771-1.558.365c-.222,11.8-.231,24.348,0,37.747v.009c.123,6.036.086,10.313-.091,13.329.5-.366,1.059-.751,1.605-1.132,0-2.049-.012-4.252-.062-6.925q-.406-23.293.1-43.393Zm135.929,1.483c-.188,0-.431.018-.753.052-1.882.2-3.72,1.241-5.735,3.794l-.016.018-.014.018a33.65,33.65,0,0,0-5.349,10.043l-14.792,53.528-20.42,2.143-.787,2.844,23.293-2.445,14.307-51.775a36.462,36.462,0,0,1,5.855-10.95,12.813,12.813,0,0,1,5.771-4.447,5.288,5.288,0,0,0-.544-2.422c-.192-.269-.254-.406-.816-.4Zm-143.251.236-16.824,3.948c-1.436,3.839-2.9,7.555-4.381,11.191l2.787.472c.02,1.447.137,6.106.188,8.565q.675-1.692,1.263-3.3.083,6.1.526,23.908a122.428,122.428,0,0,1,.107,13.146q-.5,7.727-4.776,11.619a17.529,17.529,0,0,1-10.257,4.522q-5.176.543-7.426-1.882a5.377,5.377,0,0,1-.336-.447,9.478,9.478,0,0,1-6.145-2.8l-.041-.043-.038-.045a11.443,11.443,0,0,1-2.41-6.928,18.417,18.417,0,0,0-1.537,6.356c-.012.183-.012.363-.019.544-.208.28-.413.536-.619.794l.78,1.549c.06.12.022.044.021.043a12.6,12.6,0,0,0,6.071,5.445c2.823,1.241,6.591,1.73,11.406,1.225a45.906,45.906,0,0,0,13.053-3.433,32.945,32.945,0,0,0,11.141-7.785l.252-.27.308-.2a121.86,121.86,0,0,0,12.155-9c-.731.488-1.159.9-1.941,1.4l-6.882,4.415,2.558-7.764a22.233,22.233,0,0,0,.9-5.34c.174-2.658.208-7.175.081-13.388v-.012c-.227-13-.174-25.015.036-36.5Zm-378.888,1.649a46.825,46.825,0,0,0-14.05,12.361c-5,6.7-7.809,14.653-8.427,24.109a24.028,24.028,0,0,0,.392,7.549c.387.818.684,1.494.909,2.1.029.077.055.14.084.209a43.574,43.574,0,0,1,.072-4.819q.973-14.894,9-25.656a48.709,48.709,0,0,1,9.245-9.354l2.778-6.5Zm441.015,1.925v0c-.194,0-.386.015-.585.036-3.23.339-6.577,2.522-10.071,7.431l-.012.012-.012.009a65.458,65.458,0,0,0-8.837,17.731v.007a71.066,71.066,0,0,0-3.95,17.7,27.092,27.092,0,0,0,.114,5.751,4.775,4.775,0,0,0,.56,1.753,4.352,4.352,0,0,0,.694.476c0-.906.021-1.874.091-2.943a73.66,73.66,0,0,1,4.1-18.44,68.34,68.34,0,0,1,9.241-18.511c3.432-4.823,7.09-7.617,10.968-8.429l.116-.42a1.968,1.968,0,0,0-.619-1.585l-.043-.052-.043-.052c-.232-.294-.454-.5-1.712-.472Zm-453.5.077a81.235,81.235,0,0,0-15.132,14.79q-9.157,11.75-9.866,22.613a22.807,22.807,0,0,0-.022,2.4,6.82,6.82,0,0,0,1.46,1.524c1.613,1.235,4.623,1.792,8.4,1.844-.765-2.4-.88-5.146-.624-9.08.679-10.4,3.867-19.559,9.565-27.2h0v0a51.2,51.2,0,0,1,6.216-6.882Zm322.8,6.891q-.974.034-2,.143a28.4,28.4,0,0,0-16.014,7.349,7.447,7.447,0,0,1,6.646,2.764,10.5,10.5,0,0,1,1.621,6.467q1.726,1.782,1.431,6.32a47.451,47.451,0,0,1-1.7,8.792q-1.483,5.481-3.136,11.136-.4,1.138-1.624,5.182-1.066,4.027-2.154,8.37a41.274,41.274,0,0,0-1.293,7.5,22.348,22.348,0,0,0,.012,3.007,11.708,11.708,0,0,0,1.479,2.1c2.083,2.136,5.725,3.231,11.776,2.6,4.951-.519,9.923-2.73,15.021-6.889.553-.453,1.109-.974,1.667-1.526-.431.088-.87.163-1.324.211q-3.559.373-4.9-1.209a4.27,4.27,0,0,1-.644-1.052,7.345,7.345,0,0,1-5.923-2.295,9.283,9.283,0,0,1-1.821-6.8,41.863,41.863,0,0,1,1.54-7.928l.012-.034.012-.034q1.45-4.878,3.07-9.925,2.611-8.209,4.079-13.749a53.816,53.816,0,0,0,1.714-9.828c.346-5.294-.741-8.426-2.764-10.3a20.478,20.478,0,0,0-4.773-.367Zm-28.262,3.524-14.225,1.492-14.313,51.777-.086.009a27.964,27.964,0,0,1-6.483,10.7,19.319,19.319,0,0,1-3.776,2.923l3.281,1.841-1.338,4.841,2.8-.293c.032-.034.065-.065.1-.1l-.026.091,14.22-1.492,13.806-49.967.036-.1a39.286,39.286,0,0,1,6.324-11.794,15.783,15.783,0,0,1,7.245-5.415l1.224-4.438a37.761,37.761,0,0,0-4.22,4.068l-4.962-2.71.4-1.44Zm41.541,2.878a29.182,29.182,0,0,1,.048,4.644,59.257,59.257,0,0,1-1.887,10.91v.016q-1.52,5.742-4.161,14.037v0q-1.6,4.975-3.023,9.773a38.35,38.35,0,0,0-1.345,6.758,3.877,3.877,0,0,0,.456,2.671,2.265,2.265,0,0,0,1.27.252,52.939,52.939,0,0,1,1.179-5.245q1.441-4.85,3.054-9.873,2.628-8.263,4.122-13.9a56.53,56.53,0,0,0,1.8-10.37,18.7,18.7,0,0,0-1.508-9.676Zm-99.071.4-2.061.215-1.828,6.61c.245-.383.506-.755.742-1.143A62.512,62.512,0,0,0,1671.815,320.265Zm23.316.315-2.871.3-13.858,50.16-.02.066a17.629,17.629,0,0,0-.837,4.395c-.1,1.487.167,1.8.211,1.882a4.448,4.448,0,0,0,1.644.245,19.791,19.791,0,0,1,.581-2.209l15.15-54.841Zm-9.073.952-14.22,1.492L1657.531,374.8a57.415,57.415,0,0,0-1.964,10.386,30.734,30.734,0,0,0,.016,4.517,7.91,7.91,0,0,0,1.4,1.855c2.354,2.173,5.419,3.109,10,2.628,5.53-.58,11.388-2.984,17.6-7.417,0,0,.012,0,.012,0,.519-.379,1.033-.8,1.544-1.229-.294.053-.586.107-.882.138q-3.559.373-5.093-.719a3.4,3.4,0,0,1-.891-1.492,8.265,8.265,0,0,1-5.145-1.367l-.154-.109-.138-.129c-1.843-1.712-2.243-4.192-2.077-6.735a23.485,23.485,0,0,1,1.113-5.832l-.041.134,13.229-47.89Zm54.634,5.157c-.187,0-.431.021-.753.054-1.883.2-3.721,1.239-5.735,3.792l-.016.016-.014.018a33.664,33.664,0,0,0-5.345,10.032l-14.8,53.541-20.422,2.143-.787,2.846,23.293-2.445,14.307-51.775a36.474,36.474,0,0,1,5.855-10.953,12.8,12.8,0,0,1,5.773-4.445,5.282,5.282,0,0,0-.544-2.422c-.192-.269-.254-.408-.817-.4Zm-79.578,3.27a69.558,69.558,0,0,1-14.508,12.95l-.012.012-.012,0a64.513,64.513,0,0,1-29.048,10.161l1.057-.109-14.223,51.085-23.005,2.413-.791,2.846,25.883-2.714,14.225-51.09.9-.093a61.509,61.509,0,0,0,27.765-9.7,69.867,69.867,0,0,0,9.526-7.651l2.243-8.114Zm-97.794,1.989a40.529,40.529,0,0,0-17.048,10.5,71.565,71.565,0,0,0-15.708,24.044q-5.223,13.547-5.935,24.429a38.543,38.543,0,0,0,.141,7.143,11.333,11.333,0,0,0,2.787,3.819c3.386,2.863,8.469,4.144,15.849,3.37,8.408-.882,14.741-3.734,19.338-8.76a20.648,20.648,0,0,1-5.148,1.306c-3.137.329-5.439-.457-6.921-2.338a9.55,9.55,0,0,1-6.842-3.678c-2.119-2.891-2.648-6.751-2.34-11.467a78.069,78.069,0,0,1,4.44-19.681v-.025a93.781,93.781,0,0,1,9.6-20.059s0-.006.012-.009v-.009c2.487-3.885,4.99-6.857,7.771-8.581Zm238.934.05q-3.646,7.784-8.712,16.9a8.657,8.657,0,0,1,2.134,3.365q3.78-6.818,6.742-12.846c-.056-2.52-.1-4.807-.163-7.422Zm-215,2.342a19.837,19.837,0,0,1,.1,3.617c-.275,4.206-1.479,7.823-3.855,10.5a12.308,12.308,0,0,1-8.05,4.451c-.369.039-.736.055-1.1.059-.133.328-.241.645-.385.98a8.224,8.224,0,0,0,5.54,1.3,9.179,9.179,0,0,0,6.17-3.467q2.774-3.11,3.143-8.787a15.8,15.8,0,0,0-.4-4.921,5.53,5.53,0,0,0-.175-.649c-.091-.289-.2-.566-.308-.841-.231-.72-.463-1.456-.673-2.243Zm-18.3,1.676a1.274,1.274,0,0,1-.44.079c-1.7.178-4.705,2.3-8.084,7.581v.009l-.012.009a88.1,88.1,0,0,0-8.989,18.815v.009a73.047,73.047,0,0,0-4.138,18.171c-.262,4.009.4,6.525,1.229,7.658.057.078.118.146.177.218-.029-.885-.014-1.827.052-2.839a75.558,75.558,0,0,1,4.29-18.93,90.942,90.942,0,0,1,9.3-19.459c2.352-3.677,4.629-6.2,6.832-7.6.026-.232.07-.481.084-.705a6.509,6.509,0,0,0-.306-2.952c-.02-.031-.012-.049,0-.059Zm433.2,15.465a8.495,8.495,0,0,1-3.215,1.17,22.712,22.712,0,0,1-5.991,8.544,23.941,23.941,0,0,1-13.7,6.059,22.677,22.677,0,0,1-7.043-.274q3.659,3.387,11.1,2.61a20.852,20.852,0,0,0,12.075-5.34q5.283-4.626,6.778-12.769Zm-213.791.814c-.648,1.114-1.281,2.228-1.95,3.342a16.988,16.988,0,0,0-4.163,3.408l1.615,1.408c-.147-.128.15.148,1.383.018a4.362,4.362,0,0,0,3.222-1.839l.031-.039.031-.036a6.25,6.25,0,0,0,1.744-3.862c.094-1.438.028-1.591-1.583-2.263l-.331-.138Zm-374.836,2.859q3.656,3.058,10.876,2.957l1.161-2.717-1.608.17A31.1,31.1,0,0,1,1413.525,355.155Zm382.431.918a12.631,12.631,0,0,1-3.023,6.259,10.662,10.662,0,0,1-7.08,3.914,12.228,12.228,0,0,1-1.351-.041,4.773,4.773,0,0,0,.708,1.732,2.771,2.771,0,0,0,.807.56c.1-.213.195-.422.292-.63a4.639,4.639,0,0,0,3.594.717,7.493,7.493,0,0,0,5.168-2.891,9.3,9.3,0,0,0,2.453-5.583,4.648,4.648,0,0,0-1.569-4.036Zm-299.86,1.737-29.185,61.639-21.89,2.3-.308,2.794,24.624-2.583,23.919-50.518Zm-52.006,1.229-28.15,65.759-10.787,1.129-1.238,2.893,14.379-1.508,24.606-57.48Zm84.76,3.447c-3.359,8.755-5.235,16.572-5.68,23.4a40.16,40.16,0,0,0-.05,4.1Zm306.7,1.732a127.6,127.6,0,0,1-13.032,9.7,38.953,38.953,0,0,1-12.642,8.776l-.019.009-.016.007a51.775,51.775,0,0,1-14.717,3.862,31.029,31.029,0,0,1-11.617-.717,19.5,19.5,0,0,0,2.753,1.587q5.153,2.278,12.916,1.465a48.841,48.841,0,0,0,13.894-3.651,35.932,35.932,0,0,0,12.121-8.476,125.652,125.652,0,0,0,11.549-8.372,25.33,25.33,0,0,1-1.19-4.193Zm45.546,2.333a58.142,58.142,0,0,1-7.758,7.463v.007a29.935,29.935,0,0,1-15.309,5.95,24.176,24.176,0,0,1-9.043-.669c3.54,2.537,7.9,3.552,13.093,3.007a26.894,26.894,0,0,0,13.846-5.367,54.38,54.38,0,0,0,7.082-6.606,16,16,0,0,1-1.9-3.785Zm33.219,2.937a37.173,37.173,0,0,1-16.338,6.293,21.575,21.575,0,0,1-6.878-.3c.058.054.109.115.168.168q3.969,3.186,10.762,2.472a33.493,33.493,0,0,0,14.139-5.184l-2.889.3Zm-140.1,10.3a34.178,34.178,0,0,1-2.871,3h0v0c-5.761,4.7-11.826,7.511-18.089,8.168a27.959,27.959,0,0,1-9.343-.408q4.42,3.684,13.393,2.746,8.412-.883,16.558-7.531a29.44,29.44,0,0,0,3.247-3.163,22.46,22.46,0,0,1-2.891-2.816Zm-196.645,7.293c-1.334,1.177-2.765,2.3-4.268,3.39-5.391,11.945-15.446,19.094-29.291,20.547a33.51,33.51,0,0,1-12.864-.85q6.14,4.314,16.914,3.188Q1571.682,410.883,1577.574,387.086Zm108.157,5.835c-6.067,3.947-12.119,6.4-18.141,7.036a21.89,21.89,0,0,1-7.494-.44c2.944,2.339,6.785,3.277,11.544,2.778a36.928,36.928,0,0,0,14.851-5.261l-1.952.2Zm-166.88,5.649-3.288,15.776-23.352,2.449-.587,2.823,25.883-2.714,3.043-14.595A21.375,21.375,0,0,1,1518.852,398.569Z" transform="translate(-2214.505 -431.527)" fill="#fff"/>
    <g transform="matrix(1, 0, 0, 1, -815, -166.71)" filter="url(#text1719-0)">
      <path id="text1719-0-2" data-name="text1719-0" d="M14.174-6.118a14.23,14.23,0,0,1-3.705,4.826A7.123,7.123,0,0,1,5.966.38,4.994,4.994,0,0,1,2.014-1.311a6.587,6.587,0,0,1-1.482-4.5,12.543,12.543,0,0,1,.494-3.42,18.388,18.388,0,0,1,1.33-3.382,18.706,18.706,0,0,1,1.976-3.078A16.369,16.369,0,0,1,6.764-18.2a11.987,11.987,0,0,1,2.679-1.691,6.567,6.567,0,0,1,2.717-.627,4.512,4.512,0,0,1,3,.988,3.094,3.094,0,0,1,1.178,2.47,2.162,2.162,0,0,1-.551,1.539,1.863,1.863,0,0,1-1.425.589,1.928,1.928,0,0,1-1.425-.551,1.835,1.835,0,0,1-.551-1.349,1.791,1.791,0,0,1,.152-.8,1.281,1.281,0,0,0,.152-.57q0-.532-.912-.532a3.837,3.837,0,0,0-2.546,1.178A12.044,12.044,0,0,0,6.9-14.516a19.6,19.6,0,0,0-1.71,4.161,16.413,16.413,0,0,0-.665,4.579,5.086,5.086,0,0,0,.7,2.869A2.231,2.231,0,0,0,7.182-1.862a3.121,3.121,0,0,0,1.425-.38,7.509,7.509,0,0,0,1.5-1.045,11.043,11.043,0,0,0,1.463-1.577,13.289,13.289,0,0,0,1.273-2.014Zm15.2-12.426a4.643,4.643,0,0,0-2.983,1.33A14.656,14.656,0,0,0,23.6-13.889,20.941,20.941,0,0,0,21.546-9.6a13.094,13.094,0,0,0-.8,4.275,3.752,3.752,0,0,0,.57,2.185,1.8,1.8,0,0,0,1.558.817,3.1,3.1,0,0,0,1.824-.7,9.516,9.516,0,0,0,1.843-1.862,19.354,19.354,0,0,0,1.691-2.641,26.72,26.72,0,0,0,1.406-3.059,22.105,22.105,0,0,0,.95-3.1,12.591,12.591,0,0,0,.342-2.736,2.585,2.585,0,0,0-.418-1.558A1.338,1.338,0,0,0,29.374-18.544Zm3.914-1.6h3.154l-2.166,5.814q-.532,1.444-1.045,3.078t-.912,3.154q-.4,1.52-.627,2.774a11.546,11.546,0,0,0-.228,1.862q0,1.1.722,1.1.532,0,1.539-1.1a31.579,31.579,0,0,0,2.261-2.85l.988.8a15.676,15.676,0,0,1-3.439,4.351A5.638,5.638,0,0,1,29.982.38a1.559,1.559,0,0,1-1.349-.665,3.852,3.852,0,0,1-.475-2.185q0-.342.019-.8t.095-1.216l-.152-.038a10.53,10.53,0,0,1-1.349,1.957A10.284,10.284,0,0,1,25.08-1.007,7.714,7.714,0,0,1,23.18.019,5.624,5.624,0,0,1,21.242.38a3.545,3.545,0,0,1-3.021-1.463A6.678,6.678,0,0,1,17.138-5.13a14.281,14.281,0,0,1,1.1-5.358,20.152,20.152,0,0,1,2.85-4.959,16.927,16.927,0,0,1,3.876-3.648,7.5,7.5,0,0,1,4.18-1.425,3.367,3.367,0,0,1,2.052.589,4.065,4.065,0,0,1,1.292,1.919ZM44.194-2.774a51.222,51.222,0,0,1-1.976,6.327A15.152,15.152,0,0,1,40.09,7.41a6.24,6.24,0,0,1-2.451,1.938,7.77,7.77,0,0,1-2.945.532,4.017,4.017,0,0,1-2.622-.836,2.554,2.554,0,0,1-1.026-2.052,2.166,2.166,0,0,1,.494-1.5,1.743,1.743,0,0,1,1.368-.551,1.279,1.279,0,0,1,1.1.418,4.574,4.574,0,0,1,.513.912A6.18,6.18,0,0,0,35,7.182a1.125,1.125,0,0,0,1.026.418,2.043,2.043,0,0,0,1.6-.912,6.363,6.363,0,0,0,1.1-2.394L44.232-17.1H40.584l.494-1.748h3.61a40.875,40.875,0,0,1,1.824-5.814A18.458,18.458,0,0,1,48.64-28.6a7.677,7.677,0,0,1,2.432-2.242,5.714,5.714,0,0,1,2.774-.7,6.686,6.686,0,0,1,3.686.931,2.728,2.728,0,0,1,1.444,2.337A2.334,2.334,0,0,1,58.5-26.79a1.612,1.612,0,0,1-1.349.608,2.009,2.009,0,0,1-1.121-.266,1.754,1.754,0,0,1-.608-.684,3.578,3.578,0,0,1-.3-.874,6.335,6.335,0,0,0-.247-.874,1.628,1.628,0,0,0-.456-.684,1.352,1.352,0,0,0-.912-.266,2.078,2.078,0,0,0-1.5.817,9.215,9.215,0,0,0-1.425,2.28,26.06,26.06,0,0,0-1.292,3.477q-.608,2.014-1.1,4.408h3.838L51.49-17.1H47.766Zm20.672-2.28Q61.56.38,56.734.38a5.053,5.053,0,0,1-4.028-1.615A6.759,6.759,0,0,1,51.3-5.814a13.644,13.644,0,0,1,1.083-5.244,18.325,18.325,0,0,1,2.831-4.731,15.524,15.524,0,0,1,3.914-3.42A8.306,8.306,0,0,1,63.46-20.52a4.614,4.614,0,0,1,2.983.931A2.915,2.915,0,0,1,67.6-17.214a4.774,4.774,0,0,1-.988,2.736,11.858,11.858,0,0,1-2.679,2.66,21.6,21.6,0,0,1-3.952,2.28,24.608,24.608,0,0,1-4.807,1.6Q55.1-7.41,55.062-6.9t-.038,1.045q0,4.142,2.926,4.142a4.945,4.945,0,0,0,2.907-1.1,11.9,11.9,0,0,0,2.793-3.04ZM62.7-18.734a3.555,3.555,0,0,0-2.052.76,9.642,9.642,0,0,0-2.033,2.033,17.368,17.368,0,0,0-1.767,2.907,20.226,20.226,0,0,0-1.292,3.382,17.337,17.337,0,0,0,3.382-1.292,12.531,12.531,0,0,0,2.679-1.805,8.77,8.77,0,0,0,1.767-2.128,4.487,4.487,0,0,0,.646-2.261Q64.03-18.734,62.7-18.734ZM93.29-29.64a5.685,5.685,0,0,1,3.743,1.178,3.842,3.842,0,0,1,1.425,3.116,3.177,3.177,0,0,1-.342,1.539,1.337,1.337,0,0,1-.912.741,5.439,5.439,0,0,0-1.786-2.261,4.327,4.327,0,0,0-2.584-.817,3.818,3.818,0,0,0-2.869,1.159A4.112,4.112,0,0,0,88.844-22q0,1.938,1.292,2.356.912.3,1.52.551a3.62,3.62,0,0,1,.95.532,1.6,1.6,0,0,1,.475.608,2.044,2.044,0,0,1,.133.779,1.707,1.707,0,0,1-.475,1.292,1.87,1.87,0,0,1-1.349.456A2.225,2.225,0,0,1,90.1-15.77a7.5,7.5,0,0,1-.912-.741,9.655,9.655,0,0,0-.874-.741,1.847,1.847,0,0,0-1.14-.342,2.582,2.582,0,0,0-2.2,1.311A5.8,5.8,0,0,0,84.094-13a8.128,8.128,0,0,0,.855,3.686A9.385,9.385,0,0,0,87.3-6.327,11.238,11.238,0,0,0,90.82-4.332a12.743,12.743,0,0,0,4.332.722A11.963,11.963,0,0,0,99.2-4.294a11.233,11.233,0,0,0,3.363-1.862,9.015,9.015,0,0,0,2.28-2.736,6.891,6.891,0,0,0,.836-3.306,5.93,5.93,0,0,0-.418-2.223,5.8,5.8,0,0,0-1.121-1.8,5.116,5.116,0,0,0-1.672-1.2,5.07,5.07,0,0,0-2.109-.437,4.6,4.6,0,0,0-3,.931,3.049,3.049,0,0,0-1.14,2.489,3.09,3.09,0,0,0,.589,1.919,1.773,1.773,0,0,0,1.463.779q.874,0,.874-.912a5.076,5.076,0,0,0-.038-.589,5.074,5.074,0,0,1-.038-.589,1.506,1.506,0,0,1,.418-1.083,1.409,1.409,0,0,1,1.064-.437,1.726,1.726,0,0,1,1.368.684,2.525,2.525,0,0,1,.57,1.672,2.735,2.735,0,0,1-.3,1.273,3.245,3.245,0,0,1-.836,1.026,4.3,4.3,0,0,1-1.254.7,4.362,4.362,0,0,1-1.52.266,3.972,3.972,0,0,1-1.691-.361,3.859,3.859,0,0,1-1.33-1.007,4.927,4.927,0,0,1-.874-1.539,5.715,5.715,0,0,1-.323-1.957A5.687,5.687,0,0,1,94.9-17.1a5.878,5.878,0,0,1,1.52-1.957,7.059,7.059,0,0,1,2.318-1.273,9.27,9.27,0,0,1,2.983-.456h3.99a6.284,6.284,0,0,0,3.648-.95,2.953,2.953,0,0,0,1.368-2.546,2.644,2.644,0,0,0-.608-1.729,1.755,1.755,0,0,0-1.368-.741q-.646,0-.8.418a8.238,8.238,0,0,0-.266.893,2.689,2.689,0,0,1-.4.893q-.285.418-1.235.418a1.926,1.926,0,0,1-1.425-.513,1.926,1.926,0,0,1-.513-1.425,2.4,2.4,0,0,1,.95-1.995,4.1,4.1,0,0,1,2.584-.741,5.643,5.643,0,0,1,2.185.418,5.272,5.272,0,0,1,1.729,1.14,5.272,5.272,0,0,1,1.14,1.729,5.643,5.643,0,0,1,.418,2.185,5.48,5.48,0,0,1-.551,2.451,6.143,6.143,0,0,1-1.52,1.957,7.13,7.13,0,0,1-2.318,1.311,9.5,9.5,0,0,1-2.945.513l-.076.152a4.323,4.323,0,0,1,1.615,2.166,9.292,9.292,0,0,1,.627,3.5,9.913,9.913,0,0,1-1.083,4.56,11.875,11.875,0,0,1-2.945,3.7A14.1,14.1,0,0,1,99.522-.532,15.993,15.993,0,0,1,94.088.38a15.509,15.509,0,0,1-5.282-.874,13.457,13.457,0,0,1-4.218-2.394,10.975,10.975,0,0,1-2.793-3.591,10.159,10.159,0,0,1-1.007-4.5,9.285,9.285,0,0,1,1.729-5.681,8.166,8.166,0,0,1,4.693-3.1,6.476,6.476,0,0,1-.475-1.653,11.474,11.474,0,0,1-.171-1.919,6.477,6.477,0,0,1,.494-2.565,5.829,5.829,0,0,1,1.387-1.995,6.23,6.23,0,0,1,2.128-1.292A7.79,7.79,0,0,1,93.29-29.64ZM137.712-3.686A13.591,13.591,0,0,1,134.14-.665,7.551,7.551,0,0,1,130.416.38a4.11,4.11,0,0,1-3.268-1.349A5.563,5.563,0,0,1,125.97-4.75q0-4.75,4.9-11.362l-.076-.114a4.217,4.217,0,0,1-1.71-.3,5.282,5.282,0,0,1-1.159-.684q-.475-.38-.836-.684a1.187,1.187,0,0,0-.779-.3q-.608,0-.608.646a.957.957,0,0,0,.209.608q.209.266.456.532a4.28,4.28,0,0,1,.456.589,1.4,1.4,0,0,1,.209.779,1.386,1.386,0,0,1-.532,1.121,2.085,2.085,0,0,1-1.368.437,1.912,1.912,0,0,1-1.52-.608,2.513,2.513,0,0,1-.532-1.71,4.307,4.307,0,0,1,.38-1.767,5.187,5.187,0,0,1,1.026-1.52,4.778,4.778,0,0,1,1.5-1.045,4.307,4.307,0,0,1,1.767-.38,3.156,3.156,0,0,1,1.33.247,6.279,6.279,0,0,1,.988.57,10.421,10.421,0,0,0,.893.57,2.011,2.011,0,0,0,1.007.247,1.3,1.3,0,0,0,.551-.114,2.24,2.24,0,0,0,.589-.456,8.78,8.78,0,0,1,.836-.741,1.513,1.513,0,0,1,.95-.323q.8,0,.8.76a.9.9,0,0,1-.038.247,1.257,1.257,0,0,1-.209.361q-.171.228-.475.589t-.836.969a19.591,19.591,0,0,0-1.957,2.736,19.859,19.859,0,0,0-1.425,2.907,18.713,18.713,0,0,0-.874,2.888,12.871,12.871,0,0,0-.3,2.679,5.808,5.808,0,0,0,.608,2.907,1.889,1.889,0,0,0,1.71,1.045,4.264,4.264,0,0,0,2.394-1.007,18.135,18.135,0,0,0,2.926-2.831q-.076-.8-.133-1.634t-.057-1.52a17.413,17.413,0,0,1,.475-4.047,17.617,17.617,0,0,1,1.235-3.572,8.709,8.709,0,0,1,1.748-2.527,2.923,2.923,0,0,1,2.014-.95,2,2,0,0,1,1.5.722,3.558,3.558,0,0,1,.665,2.432,12.832,12.832,0,0,1-1.1,4.75,28.94,28.94,0,0,1-3.192,5.662,6.492,6.492,0,0,0,1.273,2.964,2.637,2.637,0,0,0,2.033,1.14,3.293,3.293,0,0,0,2.166-.988,10.649,10.649,0,0,0,2.014-2.527,16.145,16.145,0,0,0,1.5-3.42,12.239,12.239,0,0,0,.589-3.667,7.621,7.621,0,0,0-.133-1.52q-.133-.646-.3-1.2t-.3-1.064a4.46,4.46,0,0,1-.133-1.121q0-2.166,1.976-2.166a1.806,1.806,0,0,1,1.691.874,6.118,6.118,0,0,1,.513,2.926,19.75,19.75,0,0,1-.988,6.1,23.447,23.447,0,0,1-2.565,5.51,15.552,15.552,0,0,1-3.553,3.971A6.471,6.471,0,0,1,142.2.38,3.949,3.949,0,0,1,139.46-.646,6.522,6.522,0,0,1,137.712-3.686Zm2.128-5.7a20.56,20.56,0,0,0,1.615-3.268,9.162,9.162,0,0,0,.627-3.306q0-1.444-.57-1.444a.929.929,0,0,0-.722.494,4.681,4.681,0,0,0-.589,1.33,13.257,13.257,0,0,0-.4,1.957,17.687,17.687,0,0,0-.152,2.375q0,.532.038.988A4.843,4.843,0,0,0,139.84-9.386ZM161.652.38a5.729,5.729,0,0,1-2.413-.513,5.594,5.594,0,0,1-1.957-1.5,7.488,7.488,0,0,1-1.33-2.413,9.766,9.766,0,0,1-.494-3.211,13.319,13.319,0,0,1,.931-4.864,15.636,15.636,0,0,1,2.451-4.256,12.781,12.781,0,0,1,3.477-3,7.937,7.937,0,0,1,4.047-1.14,6.173,6.173,0,0,1,2.527.513,5.423,5.423,0,0,1,1.976,1.482,7.333,7.333,0,0,1,1.292,2.318,8.931,8.931,0,0,1,.475,2.983,13.19,13.19,0,0,1-.95,4.826,16.812,16.812,0,0,1-2.489,4.37A13.861,13.861,0,0,1,165.68-.855,7.519,7.519,0,0,1,161.652.38Zm.228-1.9a3.624,3.624,0,0,0,2.565-1.33,13.468,13.468,0,0,0,2.28-3.363,23.173,23.173,0,0,0,1.634-4.427,18.005,18.005,0,0,0,.627-4.56,4.133,4.133,0,0,0-.7-2.774,2.486,2.486,0,0,0-1.919-.76,2.974,2.974,0,0,0-1.691.589,6.962,6.962,0,0,0-1.615,1.615,15.892,15.892,0,0,0-1.425,2.356,21.434,21.434,0,0,0-1.159,2.812,20.676,20.676,0,0,0-.76,3.021,17.3,17.3,0,0,0-.266,2.945,4.987,4.987,0,0,0,.684,3A2.125,2.125,0,0,0,161.88-1.52Zm13.338-13.338a8.141,8.141,0,0,1,1.273-1.957,14.061,14.061,0,0,1,1.862-1.824,12.024,12.024,0,0,1,2.033-1.349,4.01,4.01,0,0,1,1.786-.532,1.443,1.443,0,0,1,1.33.684,4.395,4.395,0,0,1,.418,2.2q0,.608-.057,1.178t-.209,1.33l.114.114a9.231,9.231,0,0,1,1.292-2.166,12.757,12.757,0,0,1,1.805-1.881,10.4,10.4,0,0,1,1.976-1.33,4.172,4.172,0,0,1,1.881-.513,2.574,2.574,0,0,1,1.843.7,2.29,2.29,0,0,1,.741,1.729,2.251,2.251,0,0,1-.627,1.634,2.152,2.152,0,0,1-1.615.646,1.8,1.8,0,0,1-.969-.228,4.267,4.267,0,0,1-.627-.475q-.266-.247-.494-.475a.773.773,0,0,0-.57-.228,2.594,2.594,0,0,0-1.672.969,15.016,15.016,0,0,0-1.976,2.641,34.711,34.711,0,0,0-2.033,3.914,47.364,47.364,0,0,0-1.843,4.826L179.17,0h-3.534l2.47-7.866,1.2-3.781q.475-1.5.741-2.508t.361-1.577a6.125,6.125,0,0,0,.1-.988q0-.836-.57-.836a2.029,2.029,0,0,0-.931.3,6.479,6.479,0,0,0-1.083.76,8.587,8.587,0,0,0-1.007,1.026,4.555,4.555,0,0,0-.7,1.1ZM205.39-3.04q1.1,0,3.116-2.85l.988.532Q206.758.38,203.832.38a1.941,1.941,0,0,1-1.5-.646,8.865,8.865,0,0,1-1.311-2.318l-2.546-6.08-.836.38L195.244,0h-3.458l7.334-27.246a6.853,6.853,0,0,0,.266-1.406,1.067,1.067,0,0,0-.722-1.083,9.191,9.191,0,0,0-2.85-.285l.38-1.14,7.562-.38L199.8-16.91l.152.038q2.2-3.686,5.586-3.686a4.261,4.261,0,0,1,2.812.855,2.838,2.838,0,0,1,1.026,2.3,5.167,5.167,0,0,1-1.767,3.572,16.567,16.567,0,0,1-4.921,3.23l-.988.456,1.938,5.016Q204.4-3.04,205.39-3.04Zm-7.41-7.144a20.764,20.764,0,0,0,3.04-1.33,14.759,14.759,0,0,0,2.413-1.6A8.05,8.05,0,0,0,205.01-14.8a2.944,2.944,0,0,0,.57-1.615,1.377,1.377,0,0,0-1.558-1.558,2.9,2.9,0,0,0-1.672.627,8.583,8.583,0,0,0-1.71,1.691,14.147,14.147,0,0,0-1.539,2.489A16.231,16.231,0,0,0,197.98-10.184Zm16.264-4.522a5.621,5.621,0,0,1,.475-2.318,5.625,5.625,0,0,1,1.311-1.843,5.987,5.987,0,0,1,1.995-1.216,7.107,7.107,0,0,1,2.527-.437,4.924,4.924,0,0,1,3.04.912,2.818,2.818,0,0,1,1.216,2.356A1.737,1.737,0,0,1,224.371-16a1.58,1.58,0,0,1-1.2.456,1.458,1.458,0,0,1-1.254-.513,5.542,5.542,0,0,1-.646-1.14,10.974,10.974,0,0,0-.57-1.159,1.085,1.085,0,0,0-1.026-.532,1.73,1.73,0,0,0-1.406.722,2.793,2.793,0,0,0-.57,1.786,4.059,4.059,0,0,0,.741,2.337q.741,1.083,1.653,2.261A17.655,17.655,0,0,1,221.749-9.2a7,7,0,0,1,.741,3.306,5.517,5.517,0,0,1-.551,2.432,6.561,6.561,0,0,1-1.482,2A7.087,7.087,0,0,1,218.31-.114,6.6,6.6,0,0,1,215.8.38a6.014,6.014,0,0,1-3.629-.988,3.06,3.06,0,0,1-1.349-2.584,2.655,2.655,0,0,1,.513-1.729,1.7,1.7,0,0,1,1.387-.627q1.634,0,1.862,2.242a3.678,3.678,0,0,0,.4,1.615,1.356,1.356,0,0,0,1.159.4,2.889,2.889,0,0,0,2.166-.817,3.1,3.1,0,0,0,.8-2.261,4.867,4.867,0,0,0-.76-2.7,25.844,25.844,0,0,0-1.672-2.3A21.026,21.026,0,0,1,215-11.742,5.608,5.608,0,0,1,214.244-14.706Zm12.122.456a19.436,19.436,0,0,1,3.154-2.869,17.685,17.685,0,0,1,3.686-2.071l1.786-6.08h2.888l-1.33,5.054q.608-.114,1.2-.19a9.344,9.344,0,0,1,1.2-.076,6.868,6.868,0,0,1,5.016,1.748,6.546,6.546,0,0,1,1.786,4.9,9.832,9.832,0,0,1-1.2,4.731,14.227,14.227,0,0,1-3.192,3.971,18.081,18.081,0,0,1-4.6,2.907,19.749,19.749,0,0,1-5.415,1.539L229.938,4.6a5.891,5.891,0,0,0-.247.95,4.654,4.654,0,0,0-.057.684,1.356,1.356,0,0,0,.779,1.33,7.26,7.26,0,0,0,2.755.418L232.94,9.5H222.186l.228-1.52a5.256,5.256,0,0,0,2.318-.38,2.169,2.169,0,0,0,1.026-1.368l6.878-23.484a18.228,18.228,0,0,0-2.774,1.805,22.067,22.067,0,0,0-2.47,2.261Zm11.59-4.37a8.127,8.127,0,0,0-.969.057q-.475.057-.931.133L231.762-2.318a12.389,12.389,0,0,0,3.705-1.406,13.3,13.3,0,0,0,3.211-2.546,12.743,12.743,0,0,0,2.261-3.4,9.4,9.4,0,0,0,.855-3.933,5.858,5.858,0,0,0-1.045-3.648A3.337,3.337,0,0,0,237.956-18.62Zm21.85.076a4.643,4.643,0,0,0-2.983,1.33,14.656,14.656,0,0,0-2.793,3.325A20.941,20.941,0,0,0,251.978-9.6a13.094,13.094,0,0,0-.8,4.275,3.752,3.752,0,0,0,.57,2.185,1.8,1.8,0,0,0,1.558.817,3.1,3.1,0,0,0,1.824-.7,9.516,9.516,0,0,0,1.843-1.862,19.354,19.354,0,0,0,1.691-2.641,26.722,26.722,0,0,0,1.406-3.059,22.1,22.1,0,0,0,.95-3.1,12.591,12.591,0,0,0,.342-2.736,2.585,2.585,0,0,0-.418-1.558A1.338,1.338,0,0,0,259.806-18.544Zm3.914-1.6h3.154l-2.166,5.814q-.532,1.444-1.045,3.078t-.912,3.154q-.4,1.52-.627,2.774a11.545,11.545,0,0,0-.228,1.862q0,1.1.722,1.1.532,0,1.539-1.1a31.582,31.582,0,0,0,2.261-2.85l.988.8a15.676,15.676,0,0,1-3.439,4.351A5.638,5.638,0,0,1,260.414.38a1.559,1.559,0,0,1-1.349-.665,3.852,3.852,0,0,1-.475-2.185q0-.342.019-.8t.1-1.216l-.152-.038A10.531,10.531,0,0,1,257.2-2.565a10.283,10.283,0,0,1-1.691,1.558,7.714,7.714,0,0,1-1.9,1.026,5.624,5.624,0,0,1-1.938.361,3.545,3.545,0,0,1-3.021-1.463A6.678,6.678,0,0,1,247.57-5.13a14.281,14.281,0,0,1,1.1-5.358,20.152,20.152,0,0,1,2.85-4.959,16.927,16.927,0,0,1,3.876-3.648,7.5,7.5,0,0,1,4.18-1.425,3.367,3.367,0,0,1,2.052.589,4.065,4.065,0,0,1,1.292,1.919Zm19.3,14.022a14.229,14.229,0,0,1-3.705,4.826,7.123,7.123,0,0,1-4.5,1.672,4.994,4.994,0,0,1-3.952-1.691,6.587,6.587,0,0,1-1.482-4.5,12.543,12.543,0,0,1,.494-3.42,18.386,18.386,0,0,1,1.33-3.382,18.706,18.706,0,0,1,1.976-3.078,16.367,16.367,0,0,1,2.432-2.508,11.987,11.987,0,0,1,2.679-1.691,6.567,6.567,0,0,1,2.717-.627,4.512,4.512,0,0,1,3,.988,3.094,3.094,0,0,1,1.178,2.47,2.162,2.162,0,0,1-.551,1.539,1.863,1.863,0,0,1-1.425.589,1.928,1.928,0,0,1-1.425-.551,1.835,1.835,0,0,1-.551-1.349,1.791,1.791,0,0,1,.152-.8,1.282,1.282,0,0,0,.152-.57q0-.532-.912-.532a3.837,3.837,0,0,0-2.546,1.178,12.043,12.043,0,0,0-2.337,3.04,19.6,19.6,0,0,0-1.71,4.161,16.414,16.414,0,0,0-.665,4.579,5.086,5.086,0,0,0,.7,2.869,2.231,2.231,0,0,0,1.957,1.045,3.121,3.121,0,0,0,1.425-.38,7.51,7.51,0,0,0,1.5-1.045,11.042,11.042,0,0,0,1.463-1.577,13.29,13.29,0,0,0,1.273-2.014Zm16.682,1.064Q296.4.38,291.574.38a5.053,5.053,0,0,1-4.028-1.615,6.759,6.759,0,0,1-1.406-4.579,13.644,13.644,0,0,1,1.083-5.244,18.325,18.325,0,0,1,2.831-4.731,15.524,15.524,0,0,1,3.914-3.42A8.306,8.306,0,0,1,298.3-20.52a4.614,4.614,0,0,1,2.983.931,2.915,2.915,0,0,1,1.159,2.375,4.774,4.774,0,0,1-.988,2.736,11.858,11.858,0,0,1-2.679,2.66,21.6,21.6,0,0,1-3.952,2.28,24.607,24.607,0,0,1-4.807,1.6q-.076.532-.114,1.045t-.038,1.045q0,4.142,2.926,4.142a4.945,4.945,0,0,0,2.907-1.1,11.894,11.894,0,0,0,2.793-3.04Zm-2.166-13.68a3.555,3.555,0,0,0-2.052.76,9.643,9.643,0,0,0-2.033,2.033,17.369,17.369,0,0,0-1.767,2.907A20.229,20.229,0,0,0,290.4-9.652a17.337,17.337,0,0,0,3.382-1.292,12.531,12.531,0,0,0,2.679-1.805,8.77,8.77,0,0,0,1.767-2.128,4.487,4.487,0,0,0,.646-2.261Q298.87-18.734,297.54-18.734Zm8.322,4.028a5.621,5.621,0,0,1,.475-2.318,5.625,5.625,0,0,1,1.311-1.843,5.987,5.987,0,0,1,1.995-1.216,7.107,7.107,0,0,1,2.527-.437,4.924,4.924,0,0,1,3.04.912,2.818,2.818,0,0,1,1.216,2.356A1.737,1.737,0,0,1,315.989-16a1.58,1.58,0,0,1-1.2.456,1.458,1.458,0,0,1-1.254-.513,5.543,5.543,0,0,1-.646-1.14,10.974,10.974,0,0,0-.57-1.159,1.085,1.085,0,0,0-1.026-.532,1.729,1.729,0,0,0-1.406.722,2.793,2.793,0,0,0-.57,1.786,4.059,4.059,0,0,0,.741,2.337q.741,1.083,1.653,2.261A17.654,17.654,0,0,1,313.367-9.2a7,7,0,0,1,.741,3.306,5.516,5.516,0,0,1-.551,2.432,6.561,6.561,0,0,1-1.482,2,7.086,7.086,0,0,1-2.147,1.349A6.6,6.6,0,0,1,307.42.38a6.014,6.014,0,0,1-3.629-.988,3.06,3.06,0,0,1-1.349-2.584,2.654,2.654,0,0,1,.513-1.729,1.7,1.7,0,0,1,1.387-.627q1.634,0,1.862,2.242a3.677,3.677,0,0,0,.4,1.615,1.356,1.356,0,0,0,1.159.4,2.889,2.889,0,0,0,2.166-.817,3.1,3.1,0,0,0,.8-2.261,4.867,4.867,0,0,0-.76-2.7,25.847,25.847,0,0,0-1.672-2.3,21.028,21.028,0,0,1-1.672-2.375A5.608,5.608,0,0,1,305.862-14.706Z" transform="translate(143 201.14)" fill="#fff"/>
    </g>
  </g>
</svg>
