<?xml version="1.0" encoding="UTF-8" standalone="no"?>
<svg
   xmlns:dc="http://purl.org/dc/elements/1.1/"
   xmlns:cc="http://creativecommons.org/ns#"
   xmlns:rdf="http://www.w3.org/1999/02/22-rdf-syntax-ns#"
   xmlns:svg="http://www.w3.org/2000/svg"
   xmlns="http://www.w3.org/2000/svg"
   xmlns:sodipodi="http://sodipodi.sourceforge.net/DTD/sodipodi-0.dtd"
   xmlns:inkscape="http://www.inkscape.org/namespaces/inkscape"
   sodipodi:docname="mcpinsan.svg"
   inkscape:version="1.0 (4035a4fb49, 2020-05-01)"
   id="svg2579"
   version="1.1"
   viewBox="0 0 210 297"
   height="297mm"
   width="210mm">
  <defs
     id="defs2573">
    <rect
       x="495"
       y="8771.25"
       width="1436.25"
       height="228.75"
       id="rect1721-4" />
    <rect
       x="495"
       y="8771.25"
       width="1436.25"
       height="228.75"
       id="rect2564" />
  </defs>
  <sodipodi:namedview
     inkscape:window-maximized="0"
     inkscape:window-y="30"
     inkscape:window-x="1794"
     inkscape:window-height="992"
     inkscape:window-width="1261"
     showborder="false"
     showgrid="false"
     inkscape:document-rotation="0"
     inkscape:current-layer="layer1"
     inkscape:document-units="mm"
     inkscape:cy="560"
     inkscape:cx="400"
     inkscape:zoom="0.35"
     inkscape:pageshadow="2"
     inkscape:pageopacity="0.0"
     borderopacity="1.0"
     bordercolor="#666666"
     pagecolor="#ffffff"
     id="base" />
  <metadata
     id="metadata2576">
    <rdf:RDF>
      <cc:Work
         rdf:about="">
        <dc:format>image/svg+xml</dc:format>
        <dc:type
           rdf:resource="http://purl.org/dc/dcmitype/StillImage" />
        <dc:title></dc:title>
      </cc:Work>
    </rdf:RDF>
  </metadata>
  <g
     id="layer1"
     inkscape:groupmode="layer"
     inkscape:label="Layer 1">
    <g
       id="g2612">
      <path
         sodipodi:nodetypes="cccccccccccccccccccccccc"
         id="path5665"
         d="M 68.035732,-19.481938 -181.00562,26.959397 v 38.234595 c 0.9687,-0.33895 1.93596,-0.66633 2.90263,-0.95476 V 29.605503 L 68.035732,-16.565738 314.1748,29.605503 v 34.774279 l 2.90261,-0.303949 V 26.959397 Z m 249.041678,177.724068 -2.73029,9.88229 -0.17232,0.0198 V 272.77786 L 68.035732,318.9494 -178.10299,272.77786 v -53.60251 l -2.90263,0.30367 v 55.94269 L 68.035732,321.86307 317.07741,275.42171 V 158.24382 Z"
         style="color:#000000;font-style:normal;font-variant:normal;font-weight:normal;font-stretch:normal;font-size:medium;line-height:normal;font-family:sans-serif;text-indent:0;text-align:start;text-decoration:none;text-decoration-line:none;text-decoration-style:solid;text-decoration-color:#000000;letter-spacing:normal;word-spacing:normal;text-transform:none;writing-mode:lr-tb;direction:ltr;baseline-shift:baseline;text-anchor:start;white-space:normal;clip-rule:nonzero;display:inline;overflow:visible;visibility:visible;isolation:auto;mix-blend-mode:normal;color-interpolation:sRGB;color-interpolation-filters:linearRGB;solid-color:#000000;solid-opacity:1;fill:#2c454f;fill-opacity:1;fill-rule:nonzero;stroke:none;stroke-width:1.41111;stroke-linecap:square;stroke-linejoin:miter;stroke-miterlimit:4;stroke-dasharray:none;stroke-dashoffset:0;stroke-opacity:1;color-rendering:auto;image-rendering:auto;shape-rendering:auto;text-rendering:auto;enable-background:accumulate"
         inkscape:connector-curvature="0" />
      <g
         transform="matrix(1.1610325,0,0,1.1610325,-1632.7962,-214.20568)"
         id="g5669"
         style="fill:#2c454f;fill-opacity:1">
        <path
           inkscape:connector-curvature="0"
           id="path5671"
           d="m 1457.9219,232.58789 c -0.3664,0.005 -0.7419,0.0282 -1.125,0.0684 -3.0652,0.32164 -5.7354,1.68074 -8.0137,4.07813 -2.2724,2.30682 -3.506,4.95324 -3.7012,7.9414 -0.01,0.078 -3e-4,0.15125 0,0.22852 0.1992,0.24185 0.4134,0.4779 0.6621,0.70898 1.4812,1.37612 3.1224,1.91403 5.6348,1.65039 2.5117,-0.26356 4.5672,-1.26278 6.4863,-3.21094 l 0.016,-0.0137 0.016,-0.0156 c 2.0062,-1.96496 2.9426,-3.95995 3.0976,-6.33399 0.1483,-2.26915 -0.4033,-3.70672 -1.8164,-5.03515 -0.4069,-0.0433 -0.8219,-0.072 -1.2519,-0.0664 z m -42.6094,2.14258 c -1.4745,0.021 -3.0222,0.11878 -4.6094,0.25781 4.4079,0.43939 8.0813,2.10621 10.6446,5.13672 2.3185,2.74137 3.6897,6.15065 4.2226,10.05273 1.2198,2.88928 1.7156,6.33077 1.4531,10.34961 -0.3548,5.43303 -1.9047,11.09129 -4.6464,16.97461 -2.7418,5.88332 -6.3529,10.95932 -10.834,15.22657 -0.6305,0.61293 -1.2692,1.18083 -1.9121,1.7246 2.0082,-0.95679 3.9571,-2.03613 5.8339,-3.26757 0,-10e-4 0,-8.4e-4 0.01,-0.002 6.7998,-4.55896 12.0616,-9.96166 15.877,-16.24218 l 0.01,-0.01 0.01,-0.0117 c 3.9484,-6.34732 6.0564,-12.52098 6.4532,-18.59375 0.3282,-5.02697 -0.5977,-9.2657 -2.7286,-12.95508 l -0.02,-0.0332 -0.019,-0.0352 c -1.4542,-2.7097 -3.5872,-4.92561 -6.5332,-6.69531 -3.739,-1.31852 -8.1353,-1.94916 -13.2012,-1.87695 z m 50.6777,2.25586 c 0.01,0.34175 0.01,0.6844 -0.014,1.03125 -0.2348,3.59498 -1.858,6.89712 -4.5723,9.5625 -2.623,2.65581 -5.8964,4.28315 -9.5078,4.66211 -1.3526,0.14192 -2.6772,0.09 -3.9375,-0.15235 1.9738,1.74918 4.4467,2.47492 7.4277,2.16211 3.0652,-0.32164 5.7335,-1.63653 8.0059,-3.94336 2.3652,-2.31657 3.6466,-4.96887 3.8418,-7.95703 0.1347,-2.06193 -0.289,-3.84568 -1.2442,-5.36523 z m -58.1972,2.87109 c -0.6693,0.0205 -1.3742,0.0689 -2.1133,0.14649 -12.1718,1.2772 -21.6369,5.32507 -28.7305,12.08203 l -0.01,0.004 c -6.9785,6.73737 -10.8008,15.4039 -11.5235,26.46875 -0.2066,3.163 0.294,4.17888 0.8985,6.0625 l 0.01,0.0176 c 0.082,0.20819 0.17,0.42987 0.2578,0.70703 0.053,0.15965 0.089,0.31564 0.1289,0.47266 -0.082,-0.82626 -0.1105,-1.7683 -0.035,-2.92188 0.7557,-11.57032 4.8544,-20.94163 12.293,-28.11718 0.8462,-0.80634 1.7288,-1.57023 2.6386,-2.30274 l 1.3125,-4.71289 14.0332,-3.29492 c 2.5359,-0.78673 5.2071,-1.41544 8.0196,-1.88086 l 6.6035,-1.55078 -0.2324,0.83594 c 1.8863,-0.0579 3.6057,0.0855 5.1503,0.43945 -1.9893,-1.7122 -4.7529,-2.57604 -8.7011,-2.45508 z m -77.2442,6.44141 -2.1816,0.22851 -11.2637,54.0293 c 0.9734,-1.60102 2.0085,-3.16425 3.1113,-4.68359 z m -7.4043,0.77734 -14.8867,1.5625 -39.2539,83.10742 0.9395,-8.57617 -2.4297,5.14453 -4.7442,-1.33984 8.3418,-76.13672 c -1.6697,-0.0852 -3.33,-0.0499 -4.9785,0.12305 -3.3767,0.35432 -6.7919,1.12637 -10.2402,2.26953 l -4.2891,10.0332 c 1.1938,-0.60777 2.4138,-1.19199 3.6914,-1.72461 l -42.7773,100.05274 3.5976,-0.37891 29.7207,-69.42773 4.7832,1.25781 -1.0664,9.67578 2.3321,-5.44922 -6.7168,60.89453 14.9746,-1.57031 32.9277,-69.54687 4.707,1.58007 -2.5078,12.03907 3.8106,-8.04883 -12.7559,61.22851 14.8906,-1.5625 z m 88.6465,1.85938 -2.5703,0.60351 -11.8398,42.74024 c 0.9337,-0.38168 1.8589,-0.83782 2.7773,-1.35938 z m 300.4942,0.3789 c -0.4639,-0.0159 -0.9386,-0.0149 -1.4278,0.002 -0.5591,0.0193 -1.1364,0.0609 -1.7285,0.12304 -4.9998,0.52465 -9.595,2.63559 -13.7891,6.32617 2.1697,-0.16125 4.4634,0.61889 5.7207,2.38282 1.1102,1.55737 1.4268,3.43865 1.3965,5.57226 0.9913,1.02336 1.4027,2.83631 1.2325,5.44336 -0.1243,1.90156 -0.6116,4.42728 -1.4629,7.57422 -0.8513,3.14694 -1.7511,6.34261 -2.7012,9.58984 -0.2272,0.65336 -0.6933,2.14261 -1.3984,4.46485 -0.6123,2.31249 -1.2314,4.71539 -1.8555,7.20898 -0.6182,2.40305 -0.9891,4.55548 -1.1133,6.45703 -0.075,1.1532 -0.068,2.244 0.014,3.27735 0.2517,0.48029 0.5272,0.93767 0.8457,1.35351 1.4021,1.83076 3.7555,2.72018 8.1992,2.25391 3.5138,-0.36871 6.4191,-1.65627 8.9902,-3.9707 l 0.012,-0.0117 0.014,-0.0117 c 1.2092,-1.059 2.1474,-2.38287 2.9238,-3.88086 -0.211,-0.1389 -0.4027,-0.29453 -0.5605,-0.48047 -0.2234,-0.26323 -0.4058,-0.56904 -0.5547,-0.9082 -1.9777,0.0111 -3.8357,-0.48304 -5.1015,-1.97461 -1.3418,-1.58081 -1.7116,-3.66724 -1.5684,-5.85938 0.1201,-1.83723 0.5734,-4.05351 1.3262,-6.82617 l 0.01,-0.0293 0.01,-0.0293 c 0.8323,-2.80071 1.7134,-5.65091 2.6445,-8.55078 1.4993,-4.71357 2.6724,-8.66562 3.5137,-11.8418 0,0 0,-0.002 0,-0.002 0.8326,-3.21085 1.3183,-6.04233 1.4766,-8.46485 0.2987,-4.57397 -0.6427,-7.27415 -2.3965,-8.88672 -0.8363,-0.16707 -1.7256,-0.26853 -2.666,-0.30078 z m -269.8575,0.2793 c 0.3756,2.25978 0.5336,4.60487 0.3731,7.06055 -0.3113,4.76637 -1.6119,9.52605 -3.7188,14.25781 l 3.0254,-0.31836 c 1.0881,-3.21206 1.7427,-6.41453 1.9512,-9.60547 0.2731,-4.181 -0.276,-7.97621 -1.6309,-11.39453 z m -38.7578,1.24805 -14.9883,3.51758 -25.2011,90.5625 14.4668,-1.51758 12.2539,-44.00782 2.4648,-0.2539 c 1.8654,-0.19574 3.6764,-0.49111 5.4512,-0.85547 l 0.2754,-0.99219 c -1.368,0.50541 -2.7609,0.89705 -4.1817,1.16016 l -3.9316,0.72656 z m -127.5976,0.61914 -6.709,61.23242 2.25,-4.76367 6.1465,-56.0918 c -0.5636,-0.14132 -1.1263,-0.26416 -1.6875,-0.37695 z m 410.4414,0.89062 -12.252,1.28516 -12.5957,45.5625 c -1.3049,3.48145 -2.9161,6.40049 -4.8418,8.74219 -1.0068,1.27601 -2.0878,2.26717 -3.2422,2.97265 l 2.1153,1.19532 -1.002,3.62109 14.7207,-1.54492 11.8906,-43.03711 0.031,-0.084 c 1.4271,-4.02719 3.2211,-7.42185 5.4473,-10.15625 1.7748,-2.24515 3.8863,-3.88344 6.2402,-4.66601 l 1.0547,-3.82227 c -1.2351,1.0097 -2.4447,2.17446 -3.6348,3.50391 l -4.2734,-2.33399 0.3418,-1.23828 z m -317.1797,0.77539 c -2.7106,2.29135 -5.214,4.73685 -7.4961,7.34571 -5.761,6.59983 -8.8529,13.11945 -9.2734,19.55859 -0.1096,1.67757 -0.055,3.17285 0.1308,4.52148 -0.153,0.0203 -0.3029,0.0464 -0.4551,0.0684 1.3094,0.27961 2.5569,0.98793 3.2852,2.09766 1.0013,1.52554 1.1782,3.27312 1.0801,5.25391 0.9858,0.74117 1.4043,2.3024 1.248,4.69531 -0.043,0.66453 -0.1377,1.35389 -0.2656,2.06055 0.88,-0.3072 1.6711,-0.87686 2.4941,-1.85157 l 0.021,-0.0254 0.024,-0.0254 c 1.1262,-1.26274 1.8896,-3.18079 2.0781,-6.0664 0.087,-1.32876 -0.02,-2.4689 -0.2715,-3.46485 l -0.014,-0.0566 -0.012,-0.0566 c -0.017,-0.0823 -0.04,-0.1703 -0.07,-0.25976 l -0.01,-0.0254 -0.01,-0.0273 c -0.043,-0.1376 -0.1105,-0.31596 -0.2012,-0.54297 l -0.031,-0.0801 -0.027,-0.084 c -0.5347,-1.6696 -1.3862,-4.01726 -1.1308,-7.92773 0.6372,-9.75562 3.6186,-18.2059 8.9043,-25.10743 z m 352.957,1.70117 c 0.1203,1.26708 0.1322,2.60371 0.041,4 -0.1847,2.82887 -0.7317,5.95217 -1.625,9.39649 v 0.008 0.006 c -0.8729,3.29695 -2.0665,7.31928 -3.584,12.08984 v 0.004 0.002 c -0.9171,2.85614 -1.7843,5.66422 -2.6035,8.41993 -0.6994,2.58115 -1.0774,4.58184 -1.1582,5.81836 -0.093,1.42989 0.1924,2.06493 0.3926,2.30078 0,0.003 0.2486,0.19984 1.0938,0.21679 0.2078,-1.2674 0.5377,-2.75534 1.0156,-4.51562 0.8276,-2.78474 1.7044,-5.62083 2.6308,-8.50586 1.5092,-4.74478 2.6936,-8.73517 3.5508,-11.97266 0.8631,-3.32804 1.3793,-6.30568 1.5508,-8.93164 0.2238,-3.42722 -0.2204,-6.19579 -1.3008,-8.33594 z m -63.8262,0.4668 -2.4726,0.25977 -11.9356,43.19922 -0.017,0.0566 c -0.3918,1.18974 -0.6351,2.44673 -0.7227,3.78711 -0.1009,1.54444 0.2164,2.10437 0.4004,2.28515 0.1252,0.12306 0.4273,0.28335 1.0586,0.33008 0.1473,-0.92124 0.3553,-1.81932 0.6406,-2.68555 l 13.0488,-47.23242 z m -7.8144,0.82031 -12.25,1.28516 -2.002,7.35938 0.062,-0.95118 c 0.097,-1.48966 -0.303,-2.71666 -1.1836,-3.68945 l -0.2168,0.79688 -4.9003,-0.82032 c 0.5777,0.34087 1.1872,0.64141 1.6152,1.17383 1.1744,1.38122 1.858,3.18585 1.7402,4.98828 l -0.016,0.25781 -0.1523,0.55079 c 0.088,0.0885 0.1734,0.17985 0.2519,0.27929 0.8579,0.98914 1.2488,2.07285 1.1719,3.25 l -8.6934,31.39844 c -0.5277,1.85966 -1.2228,3.55159 -2.082,5.08008 l 0.1426,2.91406 c 0.1008,2.04811 0.4765,3.62951 1.0625,4.87695 0.063,-0.0855 0.1281,-0.1678 0.1914,-0.2539 0.013,0.26106 0.041,0.50556 0.062,0.75781 0.3883,0.69349 0.8474,1.27543 1.3789,1.75391 1.6612,1.30978 3.951,1.92474 7.3848,1.56445 4.5605,-0.47856 9.3035,-2.49784 14.2753,-6.26172 0.084,-0.0636 0.1666,-0.14333 0.25,-0.20898 -1.8244,-0.0371 -3.0588,-0.6993 -3.6894,-1.99805 -1.8318,-0.0223 -3.5607,-0.51463 -4.8399,-1.77148 -1.5935,-1.56583 -2.0382,-3.82656 -1.8847,-6.17579 0.1136,-1.73831 0.4324,-3.4206 0.9609,-5.02539 l -0.035,0.11524 11.3945,-41.2461 z m -22.3574,1.78907 c -0.825,0.008 -1.714,0.0622 -2.666,0.16211 -7.5237,0.78948 -14.1944,4.05264 -20.0118,9.78906 -5.7185,5.63612 -10.2128,12.31177 -13.4843,20.0293 -2.8749,6.902 -4.6149,13.42468 -5.2442,19.57421 -0.4622,0.39055 -0.9672,0.79253 -1.4805,1.19727 v 0.082 c 0.063,1.95571 0.2986,3.64244 0.6758,5.09766 0.1914,-0.17287 0.3863,-0.34346 0.5762,-0.51758 0.032,0.99984 0.1208,1.93554 0.2363,2.83984 0.5434,1.18496 1.2171,2.15266 2.0117,2.91407 2.764,2.64847 6.1451,3.72514 10.8965,3.22656 4.1467,-0.43514 7.6365,-1.79928 10.666,-4.1211 1.2077,-0.9346 2.3836,-1.9559 3.5273,-3.06054 -0.088,0.0122 -0.1757,0.0337 -0.2636,0.043 -1.9506,0.20468 -3.5821,-0.2535 -4.8926,-1.375 -0.1787,-0.166 -0.3363,-0.38003 -0.4824,-0.61914 -1.8111,-0.15344 -3.5273,-0.81204 -4.8926,-1.98047 l -0.039,-0.0332 -0.037,-0.0351 c -1.255,-1.16601 -1.7472,-2.69307 -2.0254,-4.40039 -0.2781,-1.70734 -0.3059,-3.70021 -0.1504,-6.08203 0.3156,-4.83165 1.5509,-10.31769 3.6563,-16.52344 2.1288,-6.3477 4.8874,-11.89223 8.3008,-16.60352 0,0 0,-0.002 0,-0.002 3.4887,-4.89594 7.5686,-7.96989 12.211,-8.45703 0.3164,-0.0332 0.62,-0.0516 0.9062,-0.0586 1.3861,-0.0337 2.6954,0.41792 3.8633,1.10547 l 0.062,-0.94726 c 0.032,-0.49659 0.025,-0.86382 -0.055,-1.16406 -0.5853,-0.0541 -1.2003,-0.0865 -1.8691,-0.0801 z m -49.084,1.52539 -1.3418,0.31445 c -0.1909,10.16162 -0.1994,20.97144 0,32.51172 v 0.008 c 0.1056,5.19921 0.074,8.88256 -0.078,11.48047 0.4294,-0.31545 0.9118,-0.64652 1.3828,-0.97461 0,-1.76499 -0.01,-3.66246 -0.053,-5.96484 -0.2334,-13.37505 -0.2049,-25.83329 0.088,-37.375 z m 117.0762,1.27734 c -0.1616,0.001 -0.371,0.0158 -0.6485,0.0449 -1.6208,0.17006 -3.2043,1.06866 -4.9394,3.26758 l -0.014,0.0156 -0.012,0.0156 c -1.7714,2.17171 -3.3262,5.04654 -4.6074,8.65039 l -12.7403,46.10352 -17.5879,1.8457 -0.6777,2.44922 20.0625,-2.10547 12.3223,-44.59375 c 1.3571,-3.82952 3.0374,-6.97295 5.0429,-9.43164 1.5384,-1.94962 3.1961,-3.22298 4.9707,-3.83008 -0.06,-1.16608 -0.3048,-1.856 -0.4687,-2.08594 -0.165,-0.23155 -0.2185,-0.34985 -0.7031,-0.3457 z m -123.3829,0.20313 -14.4902,3.40039 c -1.2368,3.30675 -2.4977,6.50739 -3.7734,9.63867 l 2.4004,0.40625 c 0.017,1.24665 0.1184,5.25904 0.1621,7.37695 0.3875,-0.9717 0.751,-1.91892 1.0879,-2.8418 0.048,3.50224 0.1985,10.36653 0.4531,20.5918 0.2379,4.83124 0.269,8.60576 0.092,11.32227 -0.2898,4.43696 -1.6611,7.77204 -4.1133,10.00781 -2.4522,2.23577 -5.3972,3.53391 -8.834,3.89453 -2.9723,0.31189 -5.1037,-0.22794 -6.3965,-1.62109 -0.1027,-0.12014 -0.1968,-0.25085 -0.289,-0.38477 -2.0948,-0.22486 -3.9429,-0.95918 -5.293,-2.41406 l -0.035,-0.0371 -0.033,-0.0391 c -1.357,-1.5868 -1.9286,-3.64264 -2.0761,-5.9668 -0.7505,1.68287 -1.1957,3.50584 -1.3242,5.47461 -0.01,0.15747 -0.01,0.31227 -0.016,0.46875 -0.1787,0.24104 -0.3558,0.46154 -0.5332,0.68359 l 0.6719,1.33399 c 0.052,0.10322 0.019,0.038 0.018,0.0371 1.0367,1.94334 2.6849,3.47721 5.2285,4.68945 2.4313,1.06849 5.6772,1.48986 9.8242,1.05469 3.7304,-0.39143 7.4703,-1.37085 11.2422,-2.95703 3.7882,-1.65095 6.9605,-3.87505 9.5957,-6.70508 l 0.2168,-0.23242 0.2656,-0.16992 c 3.7308,-2.38844 7.1688,-5.01519 10.4688,-7.75586 -0.6293,0.42046 -0.9983,0.7749 -1.6719,1.20703 l -5.9277,3.80273 2.2031,-6.6875 c 0.3678,-1.11678 0.649,-2.66386 0.7754,-4.59961 0.1495,-2.28924 0.1791,-6.17963 0.07,-11.53125 v -0.006 -0.004 c -0.1954,-11.19387 -0.1499,-21.54585 0.031,-31.4375 z m -326.3378,1.41992 c -4.8627,2.84429 -8.895,6.37078 -12.1016,10.64648 -4.3047,5.77462 -6.7258,12.62076 -7.2578,20.76563 -0.2395,3.66736 0.1562,6.11797 0.3379,6.50195 0.3331,0.70418 0.589,1.28657 0.7832,1.80664 0.025,0.0661 0.047,0.12072 0.072,0.17969 -0.053,-1.17471 -0.044,-2.5255 0.062,-4.15039 0.5586,-8.55197 3.1421,-15.91879 7.7481,-22.09766 2.271,-3.02927 4.9283,-5.71188 7.9629,-8.05664 l 2.3926,-5.5957 z m 379.8476,1.6582 v 0.002 c -0.167,0.003 -0.3327,0.0133 -0.5039,0.0312 -2.7824,0.29197 -5.6649,2.17188 -8.6738,6.4004 l -0.01,0.01 -0.01,0.008 c -3.0727,4.24028 -5.6164,9.32079 -7.6113,15.27149 v 0.002 0.004 c -2.0074,5.91669 -3.1265,11.01879 -3.4024,15.24218 -0.1401,2.14568 -0.085,3.831 0.098,4.95313 0.1791,1.09941 0.504,1.52443 0.4824,1.50977 0.1948,0.16114 0.3909,0.29759 0.5977,0.41015 0,-0.78065 0.018,-1.6139 0.078,-2.53515 0.2957,-4.52753 1.4729,-9.8216 3.5293,-15.88282 2.0623,-6.15176 4.7146,-11.46615 7.959,-15.94336 2.9558,-4.15399 6.1066,-6.56088 9.4472,-7.25976 l 0.1,-0.36133 c 0.018,-0.47694 -0.051,-0.80919 -0.5332,-1.36523 l -0.037,-0.0449 -0.037,-0.0449 c -0.2001,-0.25363 -0.3915,-0.43267 -1.4746,-0.40625 z m -390.5996,0.0664 c -4.9492,3.7354 -9.3035,7.97294 -13.0332,12.73828 -5.2581,6.74691 -8.0906,13.23865 -8.4981,19.47656 -0.047,0.72512 -0.045,1.40597 -0.019,2.06641 0.353,0.50571 0.7708,0.93961 1.2578,1.3125 1.3894,1.06376 3.9822,1.54311 7.2344,1.58789 -0.6586,-2.06542 -0.7584,-4.43233 -0.5371,-7.82031 0.5852,-8.95907 3.3309,-16.84656 8.2383,-23.42969 v 0 -0.004 c 1.6032,-2.13849 3.3916,-4.11297 5.3535,-5.92773 z m 278.0254,5.93554 c -0.5591,0.0194 -1.1344,0.0609 -1.7266,0.12305 -5.0011,0.52478 -9.598,2.63774 -13.7929,6.33008 2.1707,-0.16252 4.4664,0.61585 5.7246,2.38086 1.1097,1.55689 1.4265,3.4375 1.3965,5.57031 0.9912,1.02335 1.4026,2.83631 1.2324,5.44336 -0.1242,1.90156 -0.6116,4.42533 -1.4629,7.57227 -0.8513,3.14693 -1.7511,6.34456 -2.7012,9.59179 -0.2272,0.65335 -0.6933,2.14065 -1.3984,4.46289 -0.6123,2.3125 -1.2314,4.7154 -1.8555,7.20899 -0.6182,2.40304 -0.9891,4.55547 -1.1133,6.45703 -0.059,0.90106 -0.047,1.7588 0.01,2.58984 0.3546,0.64613 0.7782,1.24928 1.2734,1.8125 1.7939,1.83938 4.9308,2.78322 10.1426,2.23633 4.2639,-0.44742 8.5471,-2.35099 12.9375,-5.93359 0.4759,-0.39047 0.955,-0.83887 1.4356,-1.31446 -0.3715,0.0762 -0.7497,0.14062 -1.1407,0.18164 -2.0434,0.21443 -3.4498,-0.13268 -4.2207,-1.04101 -0.223,-0.2628 -0.4059,-0.56776 -0.5547,-0.90625 -1.9777,0.0111 -3.8357,-0.48502 -5.1015,-1.97656 -1.3417,-1.5809 -1.7116,-3.66732 -1.5684,-5.85938 0.12,-1.83725 0.5734,-4.05516 1.3262,-6.82812 l 0.01,-0.0293 0.01,-0.0293 c 0.8324,-2.80099 1.7134,-5.64923 2.6445,-8.54882 1.4992,-4.71359 2.6725,-8.66563 3.5137,-11.8418 0.8327,-3.21077 1.3184,-6.04226 1.4766,-8.46485 0.2979,-4.55978 -0.6379,-7.25712 -2.3809,-8.87109 -1.2566,-0.25311 -2.6192,-0.3681 -4.1113,-0.31641 z m -24.3418,3.03516 -12.252,1.28516 -12.3281,44.5957 -0.074,0.008 c -1.2524,3.63868 -3.114,6.71133 -5.584,9.21875 -1.062,1.04168 -2.1473,1.87246 -3.2519,2.51758 l 2.8261,1.58594 -1.1523,4.16992 2.4082,-0.25195 c 0.028,-0.0294 0.056,-0.0563 0.084,-0.0859 l -0.022,0.0781 12.248,-1.28515 11.8907,-43.03711 0.031,-0.084 c 1.4271,-4.02696 3.2206,-7.42327 5.4473,-10.1582 1.7746,-2.24497 3.8875,-3.8819 6.2402,-4.66406 l 1.0547,-3.82227 c -1.2351,1.00968 -2.4447,2.17449 -3.6348,3.50391 l -4.2734,-2.33399 0.3418,-1.24023 z m 35.7793,2.47852 c 0.12,1.26666 0.1322,2.60437 0.041,4 -0.1848,2.82879 -0.7317,5.95207 -1.625,9.39648 v 0.006 0.008 c -0.873,3.29694 -2.0667,7.31929 -3.584,12.08985 v 0.004 c -0.9173,2.8564 -1.7843,5.66261 -2.6036,8.41797 -0.6993,2.5809 -1.0775,4.58381 -1.1582,5.82031 -0.093,1.42997 0.1925,2.06502 0.3926,2.30079 0,0.003 0.2498,0.19963 1.0938,0.21679 0.2078,-1.26798 0.5377,-2.7573 1.0156,-4.51758 0.8276,-2.78473 1.7044,-5.61887 2.6309,-8.5039 1.5091,-4.74478 2.6935,-8.73517 3.5507,-11.97266 0.8632,-3.32804 1.3793,-6.30568 1.5508,-8.93164 0.2238,-3.42512 -0.2198,-6.19378 -1.2988,-8.33398 z m -85.3301,0.34179 -1.7754,0.18555 -1.5742,5.69336 c 0.2108,-0.32944 0.4356,-0.65014 0.6387,-0.98438 1.0165,-1.63414 1.9191,-3.26568 2.7109,-4.89453 z m 20.082,0.27149 -2.4726,0.25976 -11.9356,43.20313 -0.017,0.0566 c -0.3914,1.18842 -0.6331,2.44296 -0.7207,3.78516 -0.084,1.28079 0.144,1.55339 0.1816,1.62109 0.1222,0.047 0.5375,0.20589 1.416,0.21094 0.1331,-0.64743 0.2959,-1.28274 0.5,-1.90235 l 13.0488,-47.23437 z m -7.8144,0.82031 -12.2481,1.28516 -12.3222,44.59375 c -0.9797,3.69998 -1.5436,6.68155 -1.6914,8.94531 -0.091,1.39755 -0.085,2.69148 0.014,3.89062 0.3449,0.62333 0.7475,1.1539 1.2032,1.59766 2.0275,1.87198 4.6675,2.67791 8.6152,2.26367 4.7628,-0.49977 9.8087,-2.56993 15.1602,-6.38867 0,-0.002 0.01,-0.002 0.01,-0.004 0.4471,-0.32678 0.8894,-0.68547 1.33,-1.05859 -0.2528,0.0458 -0.5049,0.0924 -0.7597,0.11914 -2.0435,0.21443 -3.5052,0.008 -4.3867,-0.61914 -0.3455,-0.3209 -0.5978,-0.75338 -0.7676,-1.28516 -1.6473,0.0263 -3.1243,-0.24793 -4.4317,-1.17773 l -0.1328,-0.0937 -0.1191,-0.11133 c -1.5869,-1.4742 -1.9321,-3.61078 -1.7891,-5.80078 0.1134,-1.73653 0.43,-3.41738 0.959,-5.02344 l -0.035,0.11524 11.3945,-41.24805 z m 47.0566,4.44141 c -0.1615,0.001 -0.371,0.0178 -0.6484,0.0469 -1.622,0.1702 -3.2049,1.06727 -4.9395,3.26563 l -0.014,0.0137 -0.012,0.0156 c -1.7687,2.16853 -3.3231,5.04273 -4.6035,8.64063 l -12.7441,46.11523 -17.5898,1.84571 -0.6778,2.45117 20.0625,-2.10547 12.3223,-44.59375 c 1.3571,-3.82953 3.0374,-6.9749 5.043,-9.4336 1.5388,-1.95027 3.1973,-3.2218 4.9726,-3.82812 -0.06,-1.16743 -0.3048,-1.85585 -0.4687,-2.08594 -0.1651,-0.23156 -0.2185,-0.3518 -0.7032,-0.34765 z m -68.541,2.8164 c -3.5062,4.14979 -7.6373,7.89936 -12.4961,11.1543 l -0.01,0.01 -0.01,0.004 c -7.4038,4.85907 -15.7853,7.7824 -25.0195,8.75195 l 0.9101,-0.0937 -12.25,44 -19.8144,2.07813 -0.6817,2.45117 22.293,-2.33789 12.2519,-44.00391 0.7754,-0.0801 c 8.8757,-0.93135 16.8462,-3.71687 23.9141,-8.35547 3.0188,-2.02236 5.7422,-4.22578 8.2051,-6.58985 l 1.9316,-6.98828 z m -84.2305,1.71289 c -5.5419,1.72159 -10.4383,4.73138 -14.6835,9.04102 -5.928,6.01782 -10.4377,12.9204 -13.5293,20.70898 -2.9988,7.77884 -4.7033,14.79304 -5.1114,21.04102 -0.1469,2.24881 -0.1046,4.29728 0.1211,6.15234 0.6223,1.34482 1.428,2.43449 2.4004,3.28906 2.9168,2.46614 7.2942,3.56931 13.6504,2.90235 7.242,-0.75994 12.6962,-3.21594 16.6563,-7.54492 -1.5753,0.59993 -3.0555,0.98038 -4.4336,1.125 -2.7017,0.28348 -4.6844,-0.39357 -5.961,-2.01367 -2.3878,-0.2608 -4.5261,-1.30432 -5.8926,-3.16797 -1.8255,-2.48969 -2.281,-5.81423 -2.0156,-9.87696 0.3166,-4.84853 1.6097,-10.46958 3.8242,-16.95117 v -0.01 -0.0117 c 2.3173,-6.58934 5.0631,-12.35094 8.2656,-17.27735 0,-0.003 0,-0.005 0.01,-0.008 0,-0.003 0,-0.006 0,-0.008 2.1418,-3.34659 4.2979,-5.90626 6.6933,-7.39063 z m 205.795,0.043 c -2.0937,4.46934 -4.5899,9.31573 -7.5039,14.5586 0.8316,0.8178 1.4695,1.8144 1.8379,2.89843 2.1707,-3.915 4.1069,-7.6032 5.8066,-11.06445 -0.048,-2.17041 -0.09,-4.14 -0.1406,-6.39258 z m -185.1797,2.01758 c 0.1172,0.99815 0.1526,2.03399 0.082,3.11523 -0.2367,3.62241 -1.2741,6.73812 -3.3203,9.04493 -1.8256,2.14824 -4.253,3.55271 -6.9336,3.83398 -0.3181,0.0334 -0.6343,0.0471 -0.9512,0.0508 -0.1141,0.28281 -0.2074,0.55575 -0.332,0.84375 1.4152,0.93066 3.0067,1.30433 4.7715,1.11914 2.0435,-0.21442 3.8147,-1.21022 5.3144,-2.98633 1.5927,-1.78585 2.4941,-4.30854 2.7071,-7.56835 0.1016,-1.556 -0.02,-2.96369 -0.3418,-4.23829 -0.037,-0.18201 -0.087,-0.36907 -0.1504,-0.55859 -0.078,-0.24873 -0.1709,-0.48733 -0.2656,-0.72461 -0.1986,-0.61998 -0.3984,-1.25413 -0.5801,-1.93164 z m -15.7637,1.44336 c -0.014,0.0111 -0.075,0.0365 -0.3789,0.0684 -1.4641,0.15363 -4.0527,1.97849 -6.9629,6.5293 v 0.008 l -0.01,0.008 c -2.9424,4.52361 -5.5319,9.92489 -7.7421,16.20508 0,0.003 0,0.005 0,0.008 -2.1177,6.19998 -3.2899,11.4458 -3.5644,15.65039 -0.2256,3.45295 0.3431,5.61987 1.0585,6.59571 0.049,0.0672 0.1014,0.12569 0.1524,0.1875 -0.025,-0.76253 -0.012,-1.57389 0.045,-2.44532 0.2957,-4.52752 1.5283,-9.96207 3.6953,-16.30468 2.2658,-6.44292 4.9354,-12.0304 8.0117,-16.75977 2.0254,-3.16717 3.9867,-5.33671 5.8848,-6.54883 0.022,-0.20006 0.06,-0.41423 0.072,-0.60742 0.1031,-1.57889 -0.1943,-2.43739 -0.2637,-2.54297 -0.017,-0.0264 -0.01,-0.0421 0,-0.0508 z m 373.1172,13.32031 c -0.5966,0.43195 -1.537,0.76209 -2.7695,1.00781 -1.1898,2.88953 -2.9041,5.3793 -5.1602,7.35938 -3.3073,2.97277 -7.3295,4.74979 -11.7988,5.21875 -2.1765,0.22839 -4.2213,0.15476 -6.0664,-0.23633 2.1012,1.94494 5.2863,2.69615 9.5566,2.24805 3.9941,-0.41911 7.4601,-1.9529 10.4004,-4.59961 3.0332,-2.65646 4.9789,-6.3215 5.8379,-10.99805 z m -184.1387,0.70117 c -0.5577,0.95956 -1.1031,1.91924 -1.6797,2.87891 -1.3039,0.74861 -2.4989,1.72846 -3.5859,2.93555 l 1.3906,1.21289 c -0.1269,-0.11067 0.129,0.12712 1.1914,0.0156 1.1386,-0.11946 1.9178,-0.53257 2.7754,-1.58398 l 0.027,-0.0332 0.027,-0.0313 c 1.0052,-1.15158 1.4273,-2.18322 1.502,-3.32617 0.081,-1.23868 0.024,-1.37005 -1.3633,-1.94922 l -0.2852,-0.11914 z m -322.8476,2.46289 c 2.099,1.75582 5.2231,2.60319 9.3672,2.54688 l 1,-2.33984 -1.3848,0.14648 c -3.3879,0.35551 -6.389,0.26917 -8.9824,-0.35352 z m 329.3886,0.79102 c -0.3109,1.96276 -1.2335,3.80917 -2.6035,5.39062 -1.5474,1.88175 -3.7193,3.12154 -6.0976,3.3711 -0.3941,0.0413 -0.7733,-0.0336 -1.1641,-0.0352 0.1718,0.69145 0.3826,1.2125 0.6094,1.49219 0.173,0.17975 0.4038,0.34257 0.6953,0.48242 0.084,-0.18356 0.1677,-0.36368 0.2519,-0.54297 0.6403,0.55811 1.6693,0.76688 3.0957,0.61719 1.7649,-0.18519 3.2479,-1.01502 4.4512,-2.49023 1.2962,-1.48497 2.0009,-3.08814 2.1133,-4.8086 0.095,-1.46158 -0.3627,-2.61585 -1.3516,-3.47656 z m -258.2714,1.49609 -25.1368,53.08985 -18.8535,1.97851 -0.2656,2.40625 21.209,-2.22461 20.6015,-43.51171 z m -44.793,1.0586 -24.2461,56.63867 -9.291,0.97266 -1.0664,2.49218 12.3847,-1.29882 21.1934,-49.50782 z m 73.0039,2.96875 c -2.8936,7.54098 -4.5087,14.27369 -4.8926,20.15039 -0.083,1.27292 -0.082,2.42784 -0.043,3.52929 z m 264.1641,1.49218 c -3.5361,2.96307 -7.228,5.79276 -11.2247,8.35743 -3.048,3.17195 -6.6786,5.72583 -10.8886,7.55859 l -0.016,0.008 -0.014,0.006 c -4.1905,1.76404 -8.4231,2.87994 -12.6758,3.32617 -3.714,0.38972 -7.0576,0.20961 -10.0059,-0.61718 0.7229,0.4999 1.5087,0.95861 2.3711,1.36718 2.9588,1.30827 6.6666,1.72956 11.125,1.26172 3.9941,-0.4191 7.9829,-1.46746 11.9668,-3.14453 4.0828,-1.77736 7.5625,-4.21107 10.4395,-7.30078 3.5056,-2.2443 6.8084,-4.65794 9.9472,-7.21094 -0.4316,-1.12683 -0.7744,-2.33154 -1.0253,-3.61133 z m 39.2285,2.00977 c -2.1111,2.37823 -4.3044,4.58899 -6.6817,6.42773 v 0.004 0.002 c -3.7682,2.88796 -8.2295,4.60496 -13.1856,5.125 -2.7638,0.29003 -5.386,0.0943 -7.789,-0.57617 3.0491,2.18551 6.8024,3.05941 11.2773,2.58985 4.5514,-0.47759 8.527,-2.01816 11.9258,-4.62305 2.1388,-1.65427 4.1708,-3.55273 6.0996,-5.68945 -0.6781,-0.97926 -1.2204,-2.07362 -1.6406,-3.25977 z m 28.6113,2.5293 c -4.6386,3.02829 -9.3355,4.92286 -14.0723,5.41992 -2.1058,0.22096 -4.0969,0.13977 -5.9238,-0.26172 0.05,0.0463 0.094,0.0994 0.1445,0.14453 2.279,1.82925 5.3684,2.53827 9.2696,2.12891 4.0184,-0.42168 8.0777,-1.92044 12.1777,-4.46485 l -2.4883,0.26172 z m -120.666,8.875 c -0.8205,0.87316 -1.6077,1.87624 -2.4727,2.58593 v 0 0.002 c -4.9622,4.05075 -10.1858,6.46912 -15.5801,7.03515 -2.9638,0.31102 -5.6729,0.21447 -8.0468,-0.35156 2.538,2.11558 6.3802,2.90616 11.5351,2.36524 4.83,-0.50683 9.5844,-2.66813 14.2617,-6.48633 0.947,-0.77689 1.8773,-1.69452 2.7969,-2.72461 -0.9163,-0.73702 -1.7367,-1.556 -2.4902,-2.42578 z m -169.3711,6.28125 c -1.1489,1.01363 -2.3816,1.98278 -3.6758,2.91992 -4.643,10.28851 -13.3038,16.44598 -25.2285,17.69726 -4.1254,0.43289 -7.8498,0.21195 -11.0801,-0.73242 3.5256,2.4773 8.3791,3.39555 14.5684,2.7461 13.5612,-1.42301 22.0327,-8.96625 25.416,-22.63086 z m 93.1562,5.02539 c -5.2251,3.3994 -10.4381,5.51627 -15.625,6.06055 -2.2914,0.24045 -4.4609,0.10852 -6.455,-0.37891 2.5359,2.01468 5.8442,2.82272 9.9433,2.39258 4.1651,-0.43705 8.4295,-1.95841 12.791,-4.53125 l -1.6816,0.17578 z m -143.7343,4.86523 -2.8321,13.58789 -20.1132,2.10938 -0.5059,2.43164 22.293,-2.33789 2.6211,-12.57031 c -0.5784,-0.99649 -1.0647,-2.07174 -1.4629,-3.22071 z"
           style="font-style:normal;font-variant:normal;font-weight:normal;font-stretch:normal;font-size:100px;line-height:125%;font-family:Lobster;-inkscape-font-specification:Lobster;letter-spacing:0px;word-spacing:0px;fill:#2c454f;fill-opacity:1;stroke:none;stroke-width:1px;stroke-linecap:butt;stroke-linejoin:miter;stroke-opacity:1" />
        <path
           inkscape:connector-curvature="0"
           id="path5673"
           d="m 1454.1168,228.08834 c -0.3664,0.005 -0.7419,0.0282 -1.125,0.0684 -3.0652,0.32164 -5.7354,1.68074 -8.0137,4.07813 -2.2724,2.30683 -3.506,4.95324 -3.7012,7.9414 -0.1952,2.98816 0.7067,5.413 2.7071,7.27149 2.0003,1.85848 4.5324,2.62632 7.5976,2.30468 3.0652,-0.32164 5.7335,-1.63653 8.0059,-3.94336 2.3652,-2.31657 3.6466,-4.96887 3.8418,-7.95703 0.1952,-2.98816 -0.7545,-5.40712 -2.8477,-7.25586 -1.7451,-1.7054 -3.8999,-2.54089 -6.4648,-2.50781 z m -42.6094,2.14258 c -1.8595,0.0265 -3.8093,0.14744 -5.8477,0.36133 -8.4628,0.88803 -17.0491,3.68717 -25.7617,8.39843 -8.706,4.61066 -15.9945,10.27115 -21.8652,16.98243 -5.761,6.59983 -8.8529,13.11945 -9.2734,19.55859 -0.1096,1.67757 -0.055,3.17285 0.1308,4.52148 -8.1539,1.08384 -15.1162,4.54448 -20.8808,10.39649 -5.928,6.01782 -10.4377,12.9204 -13.5293,20.70898 -2.9988,7.77884 -4.7033,14.79304 -5.1114,21.04102 -0.485,7.42513 1.0611,12.70409 4.6387,15.83594 3.5835,3.0413 8.7663,4.20564 15.5469,3.49414 13.5612,-1.42301 22.0327,-8.96625 25.416,-22.63086 -2.5451,2.24552 -5.4465,4.30308 -8.7051,6.17383 -3.1598,1.77044 -5.9941,2.78762 -8.5019,3.05078 -5.5731,0.5848 -8.114,-2.88081 -7.6231,-10.39649 0.2957,-4.52752 1.5283,-9.96207 3.6953,-16.30468 2.2658,-6.44291 4.9354,-12.0304 8.0117,-16.75977 3.0823,-4.81992 6.0182,-7.37557 8.8047,-7.66797 2.5079,-0.26316 3.639,1.46126 3.3965,5.17383 -0.1597,2.44486 -0.8914,5.17488 -2.1953,8.18945 1.4152,0.93066 3.0067,1.30433 4.7715,1.11914 2.0435,-0.21442 3.8147,-1.21022 5.3144,-2.98633 1.5927,-1.78585 2.4941,-4.30854 2.7071,-7.56835 0.1016,-1.55599 -0.02,-2.96369 -0.3418,-4.23829 -0.037,-0.18201 -0.087,-0.36907 -0.1504,-0.55859 -0.078,-0.24873 -0.1709,-0.48733 -0.2656,-0.72461 -0.571,-1.78295 -1.249,-3.46167 -1.0176,-7.00391 0.7557,-11.57032 4.8544,-20.94163 12.293,-28.11718 7.5417,-7.18639 17.6081,-11.44051 30.1992,-12.76172 6.3987,-0.67144 11.0718,0.73514 14.0215,4.22265 2.9496,3.48752 4.2282,8.25042 3.8339,14.28711 -0.3548,5.43303 -1.9047,11.09129 -4.6464,16.97461 -2.7418,5.88332 -6.3529,10.95932 -10.834,15.22657 -4.378,4.25641 -9.057,6.8453 -14.0371,7.76757 l 14.2851,-51.56054 -23.1094,5.42383 -27.3242,98.1914 22.293,-2.33789 12.2519,-44.00391 0.7754,-0.0801 c 8.8757,-0.93135 16.8462,-3.71687 23.9141,-8.35547 7.0744,-4.73922 12.6229,-10.41626 16.6426,-17.03321 4.1228,-6.62777 6.397,-13.21221 6.8242,-19.75195 0.3549,-5.43302 -0.6644,-10.22185 -3.0586,-14.36719 -2.2844,-4.25677 -6.0728,-7.45706 -11.3652,-9.59961 -3.9694,-1.6069 -8.7438,-2.37053 -14.3223,-2.29101 z m -84.7637,11.56836 -22.291,2.33984 -39.2539,83.10742 8.7559,-79.9082 c -3.933,-0.9862 -7.8084,-1.27765 -11.627,-0.87695 -7.6372,0.80139 -15.4577,3.62036 -23.4609,8.45703 -7.8935,4.72524 -14.5247,10.51665 -19.8926,17.375 -5.2581,6.74691 -8.0906,13.23865 -8.4981,19.47656 -0.598,9.15565 4.625,13.15486 15.668,11.99609 0.02,-0.30183 -0.2856,-1.12036 -0.916,-2.45312 -0.6304,-1.33275 -0.822,-3.90917 -0.5723,-7.73242 0.5586,-8.55197 3.1421,-15.91879 7.7481,-22.09766 4.7158,-6.2903 11.078,-11.10501 19.0859,-14.44336 l -46.0937,107.80664 12.3847,-1.29882 30.2989,-70.77735 -7.543,68.38867 21.209,-2.22461 33.5293,-70.8164 -14.334,68.80078 22.293,-2.33789 z m 380.3086,3.01758 c -0.5591,0.0193 -1.1364,0.0609 -1.7285,0.12304 -6.2233,0.65303 -11.8214,3.75826 -16.7969,9.31641 l 1.9942,-7.22461 -20.0645,2.10547 -12.5957,45.5625 c -1.3049,3.48145 -2.9161,6.40049 -4.8418,8.74219 -2.0115,2.54924 -4.3172,3.95951 -6.918,4.23242 -3.8082,0.39961 -5.5863,-1.34657 -5.332,-5.24024 0.1006,-1.53935 0.3816,-3.009 0.8418,-4.40625 l 13.0488,-47.23242 -20.0644,2.10547 -2.002,7.35938 0.062,-0.95118 c 0.1361,-2.08265 -0.6841,-3.65965 -2.4589,-4.73242 -1.7749,-1.07277 -4.5668,-1.40938 -8.375,-1.00976 -7.5237,0.78948 -14.1944,4.05264 -20.0118,9.78906 -5.7185,5.63612 -10.2128,12.31177 -13.4843,20.0293 -2.8749,6.902 -4.6149,13.42468 -5.2442,19.57421 -2.2806,1.92681 -5.1764,4.02496 -8.7363,6.3086 0.4602,-1.39724 0.7585,-3.13609 0.8945,-5.21875 0.1597,-2.44486 0.1857,-6.35985 0.076,-11.74414 -0.2334,-13.37505 -0.2048,-25.83329 0.088,-37.375 l -20.7969,4.88086 c -2.9059,7.76909 -5.9195,15.05319 -9.0391,21.85547 -3.1135,6.71172 -6.688,13.42784 -10.7246,20.14648 -2.1085,1.21048 -3.9334,3.01973 -5.4746,5.42969 -1.6281,2.32915 -2.5392,4.9884 -2.7343,7.97656 -0.01,0.15747 -0.01,0.31227 -0.016,0.46875 -0.2513,0.33892 -0.5012,0.66171 -0.75,0.96094 -1.7961,2.07699 -4.0884,3.26229 -6.875,3.55468 -2.0434,0.21443 -3.4498,-0.13268 -4.2207,-1.04101 -0.7709,-0.90833 -1.0987,-2.26907 -0.9804,-4.08008 0.1005,-1.53935 0.5153,-3.6515 1.2441,-6.33594 0.8276,-2.78473 1.7044,-5.61887 2.6309,-8.5039 1.5091,-4.74478 2.6935,-8.73517 3.5507,-11.97266 0.8632,-3.32804 1.3793,-6.30568 1.5508,-8.93164 0.3372,-5.16137 -0.8048,-8.86441 -3.4258,-11.10742 -2.6209,-2.24301 -6.2999,-3.11427 -11.0371,-2.61719 -6.2233,0.65303 -11.8214,3.75825 -16.7968,9.31641 l 1.9941,-7.22461 -20.0645,2.10547 -12.3281,44.5957 -0.074,0.008 c -1.2524,3.63868 -3.114,6.71133 -5.584,9.21875 -2.4641,2.41688 -5.0427,3.76618 -7.7363,4.04883 -2.0435,0.21443 -3.5052,0.008 -4.3867,-0.61914 -0.7828,-0.72723 -1.1144,-1.99563 -0.9961,-3.80664 0.1005,-1.53936 0.3796,-3.00706 0.8398,-4.4043 l 13.0488,-47.23437 -20.0625,2.10547 -12.3222,44.59375 c -0.9797,3.69998 -1.5436,6.68155 -1.6914,8.94531 -0.3549,5.43302 0.7259,9.36692 3.2422,11.80078 2.6091,2.42411 6.1431,3.40339 10.6015,2.93555 5.2945,-0.55556 10.7473,-2.83753 16.3594,-6.84375 1.3864,-1.01098 2.7251,-2.20694 4.0176,-3.58594 l -2.1309,7.70508 20.0625,-2.10547 12.3223,-44.59375 c 1.3571,-3.82953 3.0374,-6.9749 5.043,-9.4336 2.0114,-2.54924 4.2256,-3.94971 6.6406,-4.20312 3.3438,-0.35088 4.8641,1.78232 4.5625,6.40039 -0.1242,1.90156 -0.6116,4.42533 -1.4629,7.57227 -0.8513,3.14693 -1.7511,6.34456 -2.7012,9.59179 -0.2272,0.65335 -0.6933,2.14065 -1.3984,4.46289 -0.6123,2.3125 -1.2314,4.7154 -1.8555,7.20899 -0.6182,2.40304 -0.9891,4.55547 -1.1133,6.45703 -0.2839,4.34642 0.7761,7.87849 3.1817,10.59375 2.5044,2.61496 6.5899,3.62384 12.2558,3.0293 4.83,-0.50683 9.5844,-2.66813 14.2617,-6.48633 1.4452,-1.18566 2.8582,-2.66955 4.2403,-4.44141 0.013,0.0264 0.024,0.0537 0.037,0.0801 1.3146,2.47001 3.4495,4.40392 6.4023,5.80273 2.9588,1.30827 6.6666,1.72956 11.125,1.26172 3.9941,-0.4191 7.9829,-1.46746 11.9668,-3.14453 4.0828,-1.77736 7.5625,-4.21107 10.4395,-7.30078 5.2868,-3.38464 10.1548,-7.12227 14.6094,-11.20703 0.1761,5.45154 1.5844,9.4876 4.2675,12.05859 3.299,3.16109 7.5943,4.46377 12.8887,3.90821 4.5514,-0.47759 8.527,-2.01816 11.9258,-4.62305 3.4976,-2.70519 6.7142,-6.05556 9.6504,-10.05078 0.1982,4.02603 1.3882,7.00405 3.5683,8.93359 2.279,1.82925 5.3684,2.53827 9.2696,2.12891 5.1086,-0.53607 10.2829,-2.78668 15.5234,-6.75391 1.1227,-0.85524 2.2164,-1.85285 3.2832,-2.97656 l -1.9785,7.15625 20.0625,-2.10547 12.3223,-44.59375 c 1.3571,-3.82952 3.0374,-6.97295 5.0429,-9.43164 2.0115,-2.54924 4.2256,-3.95167 6.6407,-4.20508 3.3438,-0.35088 4.8641,1.78232 4.5625,6.40039 -0.1243,1.90156 -0.6116,4.42728 -1.4629,7.57422 -0.8513,3.14694 -1.7511,6.34261 -2.7012,9.58984 -0.2272,0.65335 -0.6933,2.14261 -1.3984,4.46485 -0.6123,2.31249 -1.2314,4.71539 -1.8555,7.20898 -0.6182,2.40305 -0.9891,4.55548 -1.1133,6.45703 -0.2898,4.43697 0.585,7.9867 2.625,10.6504 2.04,2.66369 5.5224,3.73727 10.4453,3.2207 3.9941,-0.41911 7.4601,-1.9529 10.4004,-4.59961 3.0332,-2.65646 4.9789,-6.3215 5.8379,-10.99805 -0.8715,0.63102 -2.4212,1.06296 -4.6504,1.29688 -2.0434,0.21442 -3.4498,-0.13268 -4.2207,-1.04102 -0.7709,-0.90833 -1.0988,-2.26907 -0.9805,-4.08008 0.1006,-1.53935 0.5154,-3.64954 1.2442,-6.33398 0.8276,-2.78474 1.7044,-5.62083 2.6308,-8.50586 1.5092,-4.74478 2.6936,-8.73517 3.5508,-11.97266 0.8631,-3.32804 1.3793,-6.30568 1.5508,-8.93164 0.3371,-5.16137 -0.8048,-8.86246 -3.4258,-11.10547 -2.2933,-1.96263 -5.395,-2.87743 -9.3086,-2.74218 z m -80.7558,16.67187 c 1.5866,-0.0386 2.7525,0.4127 3.498,1.35742 0.8579,0.98914 1.2488,2.07285 1.1719,3.25 l -8.6934,31.39844 c -1.0784,3.80029 -2.8484,6.9093 -5.3125,9.32617 -2.3652,2.31658 -4.7091,3.59618 -7.0312,3.83985 -1.9506,0.20468 -3.5821,-0.2535 -4.8926,-1.375 -1.2176,-1.13126 -1.6785,-3.96077 -1.3828,-8.48828 0.2957,-4.52752 1.4729,-9.8216 3.5293,-15.88282 2.0623,-6.15176 4.7146,-11.46615 7.959,-15.94336 3.2503,-4.56776 6.7338,-7.04763 10.4492,-7.4375 0.2438,-0.0256 0.4784,-0.0394 0.7051,-0.0449 z m -71.8125,12.90234 c 0.048,3.50223 0.1985,10.36653 0.4531,20.5918 0.2379,4.83124 0.2692,8.60576 0.092,11.32227 -0.2898,4.43696 -1.6611,7.77204 -4.1133,10.00781 -2.4522,2.23577 -5.3972,3.53391 -8.834,3.89453 -2.9723,0.31189 -5.1037,-0.22794 -6.3965,-1.62109 -0.9361,-1.09453 -1.4355,-2.76152 -1.5117,-4.98633 0.196,-0.40052 0.3875,-0.83984 0.582,-1.25391 0.6403,0.55811 1.6692,0.76688 3.0957,0.61719 1.7649,-0.18519 3.2479,-1.01502 4.4512,-2.49023 1.2962,-1.48497 2.0009,-3.08814 2.1133,-4.8086 0.136,-2.08266 -0.8292,-3.55553 -2.8945,-4.41797 5.945,-10.51609 10.2664,-19.46807 12.9629,-26.85547 z"
           style="font-style:normal;font-variant:normal;font-weight:normal;font-stretch:normal;font-size:100px;line-height:125%;font-family:Lobster;-inkscape-font-specification:Lobster;letter-spacing:0px;word-spacing:0px;fill:#2c454f;fill-opacity:1;stroke:none;stroke-width:5;stroke-linecap:butt;stroke-linejoin:miter;stroke-miterlimit:4;stroke-dasharray:none;stroke-opacity:1" />
      </g>
      <text
         transform="matrix(0.28222223,0,0,0.28222223,-230.53545,-2254.6782)"
         style="font-style:normal;font-weight:normal;font-size:135px;line-height:1.25;font-family:sans-serif;white-space:pre;shape-inside:url(#rect1721-4);fill:#2c454f;fill-opacity:1;stroke:none;"
         id="text1719-0"
         xml:space="preserve"><tspan
           x="495"
           y="8894.4146"><tspan
             style="font-style:italic;font-variant:normal;font-weight:normal;font-stretch:normal;font-family:'Libre Baskerville';-inkscape-font-specification:'Libre Baskerville Italic';shape-inside:url(#rect1721-4);fill:#2c454f;fill-opacity:1">cafe &amp; workspaces</tspan></tspan></text>
    </g>
  </g>
</svg>
