<svg xmlns="http://www.w3.org/2000/svg" width="100" height="100" viewBox="0 0 100 100">
  <defs>
    <style>
      .cls-1 {
        fill: rgba(0,0,0,0);
      }

      .cls-2 {
        fill: #456b7a;
      }
    </style>
  </defs>
  <g id="Group_46" data-name="Group 46" transform="translate(-2422 601)">
    <path id="Path_39" data-name="Path 39" class="cls-1" d="M0,0H100V100H0Z" transform="translate(2422 -601)"/>
    <path id="Union_5" data-name="Union 5" class="cls-2" d="M57.935,82.928H41.985A42.033,42.033,0,0,1,0,40.943v-.158a8.1,8.1,0,0,1,3.941-6.934,8.193,8.193,0,0,1,8.064-.273s12.984,6.7,14.085,7.194A58.99,58.99,0,0,0,17.584,45.8l-.04.029A3.047,3.047,0,1,0,21.07,50.8l.04-.027C38.946,38.119,61.1,38.13,78.928,50.795a3.047,3.047,0,1,0,3.529-4.968,58.874,58.874,0,0,0-8.547-5.055c1.1-.495,14.084-7.194,14.084-7.194a8.2,8.2,0,0,1,8.064.273A8.1,8.1,0,0,1,100,40.781v.162A42.031,42.031,0,0,1,58.022,82.928Zm-7.91-47.664H50a54.436,54.436,0,0,0-15.384,2.225c-3.064-.944-19.81-9.322-19.81-9.322-.31-.161-.625-.308-.942-.445l5.683-11.1A30.517,30.517,0,0,1,46.716,0h6.55A30.517,30.517,0,0,1,80.435,16.616l5.687,11.111c-.313.135-.623.281-.928.439,0,0-16.746,8.378-19.808,9.322A54.438,54.438,0,0,0,50.025,35.263ZM42.5,24.726a3.047,3.047,0,0,0,3.047,3.047h8.907a3.047,3.047,0,1,0,0-6.094H45.546A3.047,3.047,0,0,0,42.5,24.726Z" transform="translate(2422 -592)"/>
  </g>
</svg>
