<svg xmlns="http://www.w3.org/2000/svg" width="550" height="500" viewBox="0 0 550 500">
  <defs>
    <style>
      .cls-1 {
        fill: rgba(0,0,0,0);
      }

      .cls-2 {
        fill: #456b7a;
      }
    </style>
  </defs>
  <g id="Group_31" data-name="Group 31" transform="translate(-45 1395)">
    <path id="Path_16" data-name="Path 16" class="cls-1" d="M0,0H550V500H0Z" transform="translate(45 -1395)"/>
    <g id="beanbag" transform="translate(70.001 -1364.5)">
      <path id="Path_4" data-name="Path 4" class="cls-2" d="M510.074,261c-6.02-41.125-25.828-75.27-57.281-98.75-48.773-36.4-67.652-68.469-82.82-94.238C359.9,50.9,351.2,36.117,336.594,24.191,307.578.5,281.371.5,256.027.5s-51.555,0-80.57,23.691c-14.605,11.926-23.3,26.707-33.379,43.82-3.793,6.445-7.715,13.105-12.254,20.137a7.5,7.5,0,1,0,12.605,8.133c4.7-7.289,8.707-14.086,12.574-20.66,9.73-16.527,17.414-29.582,29.941-39.812C209.82,15.5,232.265,15.5,256.027,15.5s46.207,0,71.078,20.309c12.527,10.23,20.211,23.285,29.941,39.813,15.852,26.926,35.578,60.441,86.773,98.652,28.2,21.047,45.98,51.789,51.414,88.9,4.426,30.23.488,64.586-10.8,94.254a7.5,7.5,0,1,0,14.02,5.336c12.176-31.984,16.41-69.078,11.625-101.766Zm0,0" transform="translate(-11.999)"/>
      <path id="Path_5" data-name="Path 5" class="cls-2" d="M470.207,380.863a7.209,7.209,0,0,0-10.107,2.254,80.645,80.645,0,0,1-7.376,10.1C437.6,410.578,412.84,421.41,374.8,427.3c-35.682,5.527-79.536,5.984-125.1,5.984s-89.414-.457-125.1-5.984c-38.044-5.895-62.807-16.727-77.928-34.09C27.848,371.6,10.529,321.281,15.5,270.606c2.777-28.254,13.886-67.9,51.039-96.332,21.677-16.59,39.412-33.7,54.216-52.289a7.636,7.636,0,0,0-1.04-10.555,7.2,7.2,0,0,0-10.294,1.066C95.387,130.133,78.5,146.406,57.793,162.25,25.01,187.34,5.352,224.289.951,269.1-4.5,324.633,14.335,378.6,35.761,403.2,72.2,445.056,147.416,448.286,249.7,448.286s177.495-3.23,213.938-45.082a95.326,95.326,0,0,0,8.774-11.977,7.615,7.615,0,0,0-2.2-10.363Zm0,0" transform="translate(0 -10.494)"/>
      <path id="Path_6" data-name="Path 6" class="cls-2" d="M76.441,204.887a7.174,7.174,0,0,0-9.214,3.754,7.606,7.606,0,0,0,3.435,10c.182.09.378.176.575.254a.155.155,0,0,1,.038.016c16.885,6.641,28.664,20.531,41.136,35.238,8.2,9.672,16.681,19.672,26.9,27.766,17.665,14,68.775,18.984,110.716,18.984s93.048-4.984,110.712-18.984c10.224-8.094,18.7-18.094,26.906-27.766,12.467-14.707,24.246-28.6,41.136-35.238a.132.132,0,0,1,.034-.016c.2-.078.4-.164.579-.254a7.609,7.609,0,0,0,3.435-10,7.175,7.175,0,0,0-9.214-3.754h0c-20.048,7.883-33.51,23.59-46.469,38.875a592.087,592.087,0,0,0-59.7-7.973c6.018-12.512,13.3-22.395,21-28.344a7.669,7.669,0,0,0,1.46-10.5,7.115,7.115,0,0,0-10.168-1.508c-10.8,8.348-20.35,21.836-27.817,39.2-16.78-1.07-34.16-1.613-51.893-1.613-1.456,0-2.913,0-4.361.008a7.5,7.5,0,0,0,.03,15h.034q2.145-.006,4.3-.008c19.034,0,37.64.637,55.5,1.883a6.86,6.86,0,0,0,1.055.082h.079c20.88,1.492,40.727,3.82,59.027,6.938A120.545,120.545,0,0,1,351.9,270.012c-11.8,9.352-53.7,15.883-101.872,15.883s-90.067-6.531-101.872-15.887a120.389,120.389,0,0,1-13.784-13.078c18.251-3.1,38.336-5.445,59.383-6.949.144,0,.287-.016.431-.031q11.223-.791,22.771-1.266a7.5,7.5,0,0,0-.571-14.988q-9.2.375-18.243.957c-7.467-17.375-17.029-30.867-27.825-39.215a7.112,7.112,0,0,0-10.168,1.508,7.66,7.66,0,0,0,1.46,10.5c7.7,5.957,14.994,15.848,21.012,28.371a597.411,597.411,0,0,0-59.708,7.949c-12.959-15.285-26.425-30.992-46.473-38.875Zm0,0" transform="translate(0 -5.956)"/>
    </g>
  </g>
</svg>
