<svg xmlns="http://www.w3.org/2000/svg" width="100" height="100" viewBox="0 0 100 100">
  <defs>
    <style>
      .cls-1 {
        fill: rgba(0,0,0,0);
      }

      .cls-2 {
        fill: #456b7a;
      }
    </style>
  </defs>
  <g id="Group_50" data-name="Group 50" transform="translate(-1667 601)">
    <path id="Path_35" data-name="Path 35" class="cls-1" d="M0,0H100V100H0Z" transform="translate(1667 -601)"/>
    <path id="Union_2" data-name="Union 2" class="cls-2" d="M45.832,100H28.125a4.168,4.168,0,0,1,0-8.336H41.666V81.25H15.626a3.109,3.109,0,0,1-1.544-.408,8.339,8.339,0,0,1-5.75-7.928v-12.5a4.128,4.128,0,0,0-4.117-4.166,4.166,4.166,0,1,1-.049-8.332,12.512,12.512,0,0,1,12.5,12.5v.543a11.412,11.412,0,0,1,7.294-2.624H67.709A11.4,11.4,0,0,1,75,60.958v-.543a12.514,12.514,0,0,1,12.5-12.5,4.166,4.166,0,1,1-.049,8.332,4.128,4.128,0,0,0-4.117,4.166v12.5a8.336,8.336,0,0,1-5.745,7.927,3.1,3.1,0,0,1-1.545.409H50V91.664H63.539a4.168,4.168,0,1,1,0,8.336ZM24.746,54.164a7.294,7.294,0,0,1-7.185-8.539L24.446,6.041A7.277,7.277,0,0,1,31.627,0H60.033a7.268,7.268,0,0,1,7.181,6.045L74.1,45.629a7.288,7.288,0,0,1-7.177,8.535Z" transform="translate(1671 -601)"/>
  </g>
</svg>
