<svg xmlns="http://www.w3.org/2000/svg" width="100" height="100" viewBox="0 0 100 100">
  <defs>
    <style>
      .cls-1 {
        fill: rgba(0,0,0,0);
      }

      .cls-2 {
        fill: #456b7a;
      }
    </style>
  </defs>
  <g id="Group_49" data-name="Group 49" transform="translate(-1856 601)">
    <path id="Path_36" data-name="Path 36" class="cls-1" d="M0,0H100V100H0Z" transform="translate(1856 -601)"/>
    <path id="Union_3" data-name="Union 3" class="cls-2" d="M11.378,60.407C4.6,53.478,1.758,44.064.638,35.841c6.9,9.378,21.792,15.877,39.014,15.877,17.239,0,32.134-6.517,39.029-15.894-1.1,8.189-3.947,17.637-10.74,24.583-6.655,6.827-16.17,10.276-28.29,10.276S18.015,67.234,11.378,60.407Zm2.492-4.835a1.725,1.725,0,0,0-.026,2.439c5.983,6.119,14.654,9.222,25.809,9.222a1.724,1.724,0,0,0,0-3.448c-10.189,0-18.034-2.759-23.343-8.189a1.725,1.725,0,0,0-2.439-.025Zm63.485-2.819c.534-.087.948-.172,1.189-.223.655-.155,1.362-.31,2.1-.465,6.551-1.4,14.706-3.139,15.773-10.931a12.8,12.8,0,0,0,.121-1.724,6.294,6.294,0,0,0-2.465-5.465c-2.534-1.811-7.033-2.07-11.637-.725a79.232,79.232,0,0,0,.31-8.689v-.4q0-.673-.051-1.345l-.017-1.137c4.413-1.069,9.758-1.086,13.429,1.569a9.706,9.706,0,0,1,3.879,8.24V39.41a16.961,16.961,0,0,1-.155,2.172c-1.4,10.206-11.671,12.4-18.464,13.843-.723.155-1.431.293-2.068.448s-1.93.362-3.569.621c-.155.017-.31.051-.465.07A39.416,39.416,0,0,0,77.355,52.753ZM.017,24.583v-.258c0-.031-.017-.053-.017-.087v-.1C0,10.827,17.786,0,39.652,0S79.3,10.827,79.3,24.136,61.516,48.271,39.652,48.271C18.034,48.271.414,37.686.017,24.583Zm14.04,10.952a1.724,1.724,0,0,0,0,3.015,51.162,51.162,0,0,0,25.6,6.273c21.655,0,36.2-10.689,36.2-20.687a14.138,14.138,0,0,0-4.347-9.525A1.724,1.724,0,1,0,69,16.974a10.813,10.813,0,0,1,3.41,7.162c0,8.138-14.009,17.239-32.755,17.239a47.693,47.693,0,0,1-23.846-5.8,1.725,1.725,0,0,0-1.749-.045Zm4.906-9.676c0,6.766,9.087,12.066,20.688,12.066s20.687-5.3,20.687-12.066a1.724,1.724,0,1,0-3.448,0c0,4.382-6.945,8.126-15.516,8.574V30.949c5.451-.4,9.125-2.6,10.062-4.228a1.665,1.665,0,0,0-.594-2.253,1.785,1.785,0,0,0-2.374.5A11.615,11.615,0,0,1,41.375,27.5V23.663c6.835-2.208,10.343-4.94,10.343-8.147,0-2.948-2.965-5.171-6.9-5.171a10.781,10.781,0,0,0-5.171,1.216,10.791,10.791,0,0,0-5.173-1.216c-3.93,0-6.9,2.223-6.9,5.171,0,3.207,3.508,5.939,10.343,8.147V27.5A11.737,11.737,0,0,1,30.848,25a1.724,1.724,0,1,0-2.984,1.724c.937,1.624,4.611,3.826,10.062,4.228v3.485c-8.571-.448-15.516-4.192-15.516-8.574a1.724,1.724,0,1,0-3.448,0ZM39.652,3.448c-21.657,0-36.2,10.689-36.2,20.688a12.732,12.732,0,0,0,2.737,7.553,1.724,1.724,0,1,0,2.78-2.037A9.388,9.388,0,0,1,6.9,24.136C6.9,16,20.9,6.9,39.652,6.9A49.412,49.412,0,0,1,61.02,11.378a1.724,1.724,0,0,0,1.5-3.1,52.861,52.861,0,0,0-22.08-4.833Q40.047,3.442,39.652,3.448Zm-8.62,12.068c0-.7,1.227-1.724,3.448-1.724a6.549,6.549,0,0,1,4.043,1.131,1.75,1.75,0,0,0,2.256,0,6.521,6.521,0,0,1,4.045-1.131c2.22,0,3.448,1.019,3.448,1.724,0,.926-1.832,3.016-8.619,5.1C32.862,18.532,31.031,16.442,31.031,15.516Z" transform="translate(1856 -586)"/>
  </g>
</svg>
