<svg xmlns="http://www.w3.org/2000/svg" width="550" height="500" viewBox="0 0 550 500">
  <defs>
    <style>
      .cls-1 {
        fill: rgba(0,0,0,0);
      }

      .cls-2 {
        fill: #456b7a;
      }
    </style>
  </defs>
  <g id="Group_32" data-name="Group 32" transform="translate(-690 1705)">
    <path id="Path_17" data-name="Path 17" class="cls-1" d="M0,0H550V500H0Z" transform="translate(690 -1705)"/>
    <path id="Union_1" data-name="Union 1" class="cls-2" d="M59.706,320.3C5.7,264.958-.885,181.33.09,135.64c-.015-.78-.09-1.545-.09-2.325C0,59.811,93.443,0,208.3,0,316.88,0,406.266,53.452,415.745,121.384c21.432-5.152,47.52-5.407,65.443,7.544a46.741,46.741,0,0,1,18.755,39.8v38.409c0,.09-.052.165-.052.262a77.277,77.277,0,0,1-.7,10.363c-6.727,49.208-56.362,59.8-89.214,66.807-3.524.742-6.861,1.455-10,2.182a92.674,92.674,0,0,0-22.722,8.136A173.683,173.683,0,0,1,356.924,320.3c-35.387,36.257-85.39,54.644-148.62,54.644C145.1,374.944,95.1,356.556,59.706,320.3Zm11.953-11.638c32.11,32.958,78.048,49.62,136.644,49.62s104.579-16.663,136.7-49.62h.023c32.838-33.647,46.583-79.3,51.9-118.865C363.643,235.142,291.549,266.63,208.3,266.63S53.092,235.195,19.79,189.924C25.144,229.608,38.9,275.111,71.659,308.661ZM415.085,177.3a276.316,276.316,0,0,1-24.776,94.756c1.95-.54,3.9-1.087,5.939-1.552,3.2-.742,6.637-1.462,10.213-2.235,31.653-6.757,71.052-15.163,76.174-52.755h.022c2.077-15.223-1.207-26.509-9.764-33.535-7.034-5.8-17.974-8.733-30.587-8.733A99.149,99.149,0,0,0,415.085,177.3ZM16.67,133.315v.495c0,.142.082.27.082.42v1.252C18.665,198.8,103.829,249.96,208.3,249.96c105.674,0,191.634-52.32,191.634-116.645v-.787a1.324,1.324,0,0,1-.045-.382V132c-1.17-63.673-86.6-115.333-191.581-115.333C102.63,16.662,16.662,68.99,16.67,133.315Zm466.587,35.627v-.217a30.388,30.388,0,0,0-11.871-26.291l.022.045c-11.923-8.676-33.01-10.056-54.817-4.057.1,6.464.015,13.61-.315,21.3a115.466,115.466,0,0,1,26.416-3.245C457.573,156.481,472.16,159.916,483.257,168.942ZM83.53,297.038a8.341,8.341,0,1,1,11.931-11.661c25.631,26.246,63.6,39.572,112.843,39.572a8.335,8.335,0,0,1,0,16.67C154.417,341.619,112.483,326.621,83.53,297.038Zm1.057-94.058a8.334,8.334,0,1,1,8.466-14.353A230.507,230.507,0,0,0,208.3,216.635c90.6,0,158.309-43.988,158.309-83.32A52.243,52.243,0,0,0,350.13,98.7a8.332,8.332,0,1,1,12.133-11.421,68.329,68.329,0,0,1,21.012,46.036c0,48.323-70.3,99.982-174.971,99.982q-2.514.051-5.021.051A247.174,247.174,0,0,1,84.587,202.98Zm23.726-61.333a8.335,8.335,0,0,1,16.67,0c0,21.177,33.557,39.279,74.989,41.446v-16.85c-26.351-1.942-44.1-12.583-48.638-20.434a8.331,8.331,0,1,1,14.42-8.331,56.756,56.756,0,0,0,34.217,12.1V131.028c-33.04-10.671-49.995-23.876-49.995-39.377,0-14.248,14.33-24.994,33.325-24.994a52.134,52.134,0,0,1,25,5.879A52.1,52.1,0,0,1,233.3,66.657c18.995,0,33.332,10.746,33.332,24.994,0,15.5-16.962,28.706-49.995,39.377V149.58a56.211,56.211,0,0,0,34.285-12.223,8.629,8.629,0,0,1,11.473-2.437,8.042,8.042,0,0,1,2.872,10.888c-4.529,7.851-22.287,18.492-48.63,20.434v16.85c41.424-2.167,74.989-20.269,74.989-41.446a8.331,8.331,0,1,1,16.663,0c0,32.7-43.921,58.326-99.982,58.326S108.314,174.349,108.314,141.646ZM183.3,83.32c-10.731,0-16.663,4.927-16.663,8.331,0,4.477,8.856,14.585,41.664,24.634,32.808-10.048,41.656-20.157,41.656-24.634,0-3.4-5.932-8.331-16.662-8.331a31.585,31.585,0,0,0-19.55,5.459,8.459,8.459,0,0,1-10.9,0,31.644,31.644,0,0,0-17.835-5.505Q184.158,83.274,183.3,83.32ZM46.516,169.82a61.561,61.561,0,0,1-13.191-36.5c0-48.33,70.309-99.99,174.979-99.99A255.5,255.5,0,0,1,318.875,56.661a8.331,8.331,0,0,1-7.251,15A238.575,238.575,0,0,0,208.3,49.995c-90.6,0-158.309,43.981-158.309,83.32a45.365,45.365,0,0,0,10,26.659,8.345,8.345,0,0,1-13.475,9.846Z" transform="translate(715 -1642)"/>
  </g>
</svg>
