<svg xmlns="http://www.w3.org/2000/svg" width="550" height="500" viewBox="0 0 550 500">
  <defs>
    <style>
      .cls-1 {
        fill: rgba(0,0,0,0);
      }

      .cls-2 {
        fill: #456b7a;
      }
    </style>
  </defs>
  <g id="Group_35" data-name="Group 35" transform="translate(-2173 1705)">
    <path id="Path_19" data-name="Path 19" class="cls-1" d="M0,0H550V500H0Z" transform="translate(2173 -1705)"/>
    <path id="ergonomic" class="cls-2" d="M280.762,244.125a26.885,26.885,0,0,0,26.855-26.855V168.441a26.851,26.851,0,0,0-39.062-23.918V56.152A56.214,56.214,0,0,0,212.4,0H95.215A56.214,56.214,0,0,0,39.063,56.152v6.1a7.324,7.324,0,0,0,14.648,0v-6.1a41.552,41.552,0,0,1,41.5-41.5H212.4a41.552,41.552,0,0,1,41.5,41.5V173.339a41.552,41.552,0,0,1-41.5,41.5H95.215a41.552,41.552,0,0,1-41.5-41.5V93.505a7.324,7.324,0,0,0-14.648,0v51.018A26.851,26.851,0,0,0,0,168.441V217.27a26.855,26.855,0,0,0,53.711,0v-6.145a56.015,56.015,0,0,0,41.5,18.368h36.621v44.434H36.621a36.621,36.621,0,0,0,0,73.242H97.656v12.207a17.111,17.111,0,0,0,17.09,17.09h17.09v2.361a7.324,7.324,0,0,0,14.648,0v-2.361h14.648v45.41H146.484V410.156a7.324,7.324,0,0,0-14.648,0v11.719H81.055a23,23,0,0,0-21.606,15.213,31.74,31.74,0,1,0,37.72,31.174q0-1.23-.092-2.441h25.085c-.061.8-.092,1.621-.092,2.441a31.738,31.738,0,0,0,63.477,0c0-.82-.031-1.637-.092-2.441h25.085q-.092,1.213-.092,2.441a31.738,31.738,0,1,0,37.724-31.174,23.006,23.006,0,0,0-21.61-15.213H175.781v-45.41h17.09a17.111,17.111,0,0,0,17.09-17.09V347.168H271a36.621,36.621,0,0,0,0-73.242H247.723a7.324,7.324,0,0,0,0,14.648H271a21.973,21.973,0,1,1,0,43.945H36.621a21.973,21.973,0,1,1,0-43.945H216.309a7.324,7.324,0,0,0,0-14.648H175.781V229.492H212.4a56.015,56.015,0,0,0,41.5-18.368v6.145a26.885,26.885,0,0,0,26.855,26.855ZM39.063,217.27a12.207,12.207,0,0,1-24.414,0V168.441a12.207,12.207,0,0,1,24.414,0ZM82.52,468.262a17.09,17.09,0,1,1-24.414-15.434V458.5a7.326,7.326,0,0,0,7.324,7.324H82.348a17.269,17.269,0,0,1,.172,2.441Zm71.289,17.09a17.09,17.09,0,1,1,17.09-17.09A17.111,17.111,0,0,1,153.809,485.352Zm105.469-17.09a17.09,17.09,0,1,1-34.008-2.441h16.918a7.324,7.324,0,0,0,7.324-7.324v-5.672A17.109,17.109,0,0,1,259.277,468.262ZM234.848,444.3c.011.172.015.347.015.523v6.348H219.952c-.1,0-.191,0-.282,0H180.542a31.718,31.718,0,0,0-53.467,0H87.956c-.1,0-.195,0-.29,0H72.754v-6.348c0-.183,0-.359.015-.523a8.309,8.309,0,0,1,8.286-7.778H226.563a8.309,8.309,0,0,1,8.286,7.778Zm-39.536-97.134v12.207a2.444,2.444,0,0,1-2.441,2.441H114.746a2.444,2.444,0,0,1-2.441-2.441V347.168Zm-34.18-73.242H146.484V229.492h14.648ZM280.762,156.234a12.221,12.221,0,0,1,12.207,12.207V217.27a12.207,12.207,0,1,1-24.414,0V168.441A12.221,12.221,0,0,1,280.762,156.234Zm0,0" transform="translate(2294 -1705)"/>
  </g>
</svg>
