<svg xmlns="http://www.w3.org/2000/svg" width="550" height="500" viewBox="0 0 550 500">
  <defs>
    <style>
      .cls-1 {
        fill: rgba(0,0,0,0);
      }

      .cls-2 {
        fill: #456b7a;
      }
    </style>
  </defs>
  <g id="Group_34" data-name="Group 34" transform="translate(-2871 1384)">
    <path id="Path_20" data-name="Path 20" class="cls-1" d="M0,0H550V500H0Z" transform="translate(2871 -1384)"/>
    <g id="meeting" transform="translate(2896 -1384.167)">
      <path id="Path_11" data-name="Path 11" class="cls-2" d="M26.741,306.912a32.2,32.2,0,0,0,62.423-11.045v-17.91a36.9,36.9,0,0,1-17.384-2.824,59.917,59.917,0,0,1-1.5,5.924c-2.3,7.474-6.146,14.284-12.235,19.184-6.173,4.983-14.366,7.862-25.219,7.308a54.917,54.917,0,0,1-6.09-.636Zm189.736-47.973h64.389V238.7H231.287a14.886,14.886,0,0,0-14.81,14.811Zm64.388,14.644H216.477v22.283a32.194,32.194,0,0,0,64.388,0V273.583Zm200.7,48.887a34.877,34.877,0,0,1,10.242,8.249A34.307,34.307,0,0,1,500,352.975v49.385a7.322,7.322,0,0,1-14.644,0V352.975a19.779,19.779,0,0,0-4.706-12.816,20.116,20.116,0,0,0-10.132-6.422,46.606,46.606,0,0,1-55.753-.581,13.988,13.988,0,0,0-4.318,1.219,13.4,13.4,0,0,0-4.983,4.068l-39.337,52.1a7.354,7.354,0,0,1-5.84,2.935H309.878a13.495,13.495,0,1,0,0,26.989h60.208a13.158,13.158,0,0,0,6.563-1.412c4.263-2.132,8.249-8.608,11.155-12.484l26.05-34.464a7.3,7.3,0,1,1,11.653,8.8l-24.775,32.83v63.835h84.625v-42.05a7.322,7.322,0,0,1,14.644,0v49.385a7.3,7.3,0,0,1-7.308,7.308H7.336A7.325,7.325,0,0,1,0,484.907V435.522a7.322,7.322,0,0,1,14.644,0v42.05H99.3V413.737l-24.8-32.83a7.314,7.314,0,0,1,11.683-8.8l25.467,33.717q3.488,4.608,6.976,9.273a13.474,13.474,0,0,0,4.762,3.958,12.809,12.809,0,0,0,6.118,1.412H190.15a13.495,13.495,0,1,0,0-26.989H139.714a7.311,7.311,0,0,1-5.84-2.935l-39.337-52.1a13.54,13.54,0,0,0-9.3-5.287,46.663,46.663,0,0,1-55.752.609,20.073,20.073,0,0,0-10.021,6.256,19.829,19.829,0,0,0-4.817,12.955V402.36A7.322,7.322,0,0,1,0,402.36V352.976a34.409,34.409,0,0,1,8.415-22.5,35.253,35.253,0,0,1,10.049-8,46.448,46.448,0,0,1-8.332-26.6V253.515A29.488,29.488,0,0,1,39.56,224.062h34.8a29.489,29.489,0,0,1,29.454,29.453v42.353a46.529,46.529,0,0,1-7.586,25.5,28.347,28.347,0,0,1,9.993,8.277L143.34,378.8h29.314V349.1c0-8.415,4.457-16.028,11.682-22.478a76.974,76.974,0,0,1,21.095-12.761,46.5,46.5,0,0,1-3.6-17.994V253.514a29.489,29.489,0,0,1,29.454-29.453H288.2a7.348,7.348,0,0,1,7.337,7.336v64.472a46.848,46.848,0,0,1-3.238,17.08c8.747,3.433,16.664,7.861,22.645,13.01,7.667,6.589,12.4,14.45,12.4,23.143v29.7H356.66l37.123-49.163a28.039,28.039,0,0,1,10.021-8.249,46.489,46.489,0,0,1-7.613-25.523V253.514a29.489,29.489,0,0,1,29.454-29.453h34.8A29.488,29.488,0,0,1,489.9,253.514v42.353a46.664,46.664,0,0,1-8.333,26.6Zm-8.3-15.558a54.251,54.251,0,0,1-6.09.636c-10.824.554-19.019-2.325-25.191-7.308-6.118-4.9-9.966-11.709-12.264-19.184a59.828,59.828,0,0,1-1.468-5.924,37.035,37.035,0,0,1-17.411,2.824v17.91a32.2,32.2,0,0,0,62.424,11.045Zm-62.424-43.627c9.772,1.384,16.913-4.291,18.187-5.4a7.4,7.4,0,0,1,4.762-2.049,7.285,7.285,0,0,1,7.64,6.948,58.346,58.346,0,0,0,2.27,13.979c1.5,4.9,3.848,9.218,7.42,12.1,3.516,2.824,8.472,4.43,15.364,4.1a52.726,52.726,0,0,0,8.774-1.273V253.512a14.936,14.936,0,0,0-14.81-14.811h-34.8a14.934,14.934,0,0,0-14.81,14.811Zm-321.67,0v-9.772A14.886,14.886,0,0,0,74.355,238.7h-34.8a14.886,14.886,0,0,0-14.782,14.811v38.174a52.126,52.126,0,0,0,8.748,1.273c6.894.333,11.849-1.273,15.363-4.1,3.571-2.878,5.924-7.2,7.447-12.1a56.961,56.961,0,0,0,2.242-13.979,7.325,7.325,0,0,1,12.346-4.955c1.025.913,8.278,6.864,18.243,5.453Zm124.1,63.171c-7.642,2.962-14.4,6.727-19.213,11.046-4.18,3.709-6.755,7.7-6.755,11.6v29.7h2.852a28.143,28.143,0,0,1,24.693,41.662h70.313A28.175,28.175,0,0,1,309.877,378.8H312.7V349.1c0-4.042-2.769-8.194-7.253-12.042-5.26-4.512-12.568-8.415-20.707-11.377-.941,1.135-1.937,2.242-2.962,3.267a46.682,46.682,0,0,1-66.188,0q-1.206-1.207-2.325-2.492ZM61.04,62.4a7.322,7.322,0,0,1,0-14.644H196.628a7.322,7.322,0,0,1,0,14.644Zm0,77.067a7.336,7.336,0,0,1,0-14.672h67.795a7.336,7.336,0,1,1,0,14.672Zm0-38.533a7.322,7.322,0,0,1,0-14.644H196.628a7.322,7.322,0,0,1,0,14.644ZM204.13,179.02a20.247,20.247,0,0,0,4.734,7.474,20.469,20.469,0,0,0,14.588,6.063H266.5a7.322,7.322,0,0,1,0,14.644H223.452a34.984,34.984,0,0,1-24.942-10.408,35.6,35.6,0,0,1-9.578-17.771H86.812L53.649,212.184a7.34,7.34,0,0,1-12.54-5.148V178.412A44.56,44.56,0,0,1,4.043,134.618V52.569a44.517,44.517,0,0,1,44.4-44.4h160.78a44.517,44.517,0,0,1,44.4,44.4V66.134H378.033A35.349,35.349,0,0,1,413.3,101.4v70.534a35.366,35.366,0,0,1-27.959,34.493v28.789a7.309,7.309,0,0,1-12.486,5.177L339.665,207.2h-40a7.322,7.322,0,1,1,0-14.644H342.71a7.233,7.233,0,0,1,5.2,2.187L370.7,217.528V199.894a7.331,7.331,0,0,1,7.337-7.336,20.7,20.7,0,0,0,20.623-20.623V101.4a20.7,20.7,0,0,0-20.623-20.623H253.626V134.62a44.515,44.515,0,0,1-44.4,44.4H204.13ZM83.767,164.377H209.225a29.865,29.865,0,0,0,29.758-29.759V52.569A29.867,29.867,0,0,0,209.225,22.81H48.444a29.868,29.868,0,0,0-29.76,29.759v82.05a29.867,29.867,0,0,0,29.76,29.759,7.324,7.324,0,0,1,7.308,7.336v17.634l22.838-22.81a7.271,7.271,0,0,1,5.177-2.161Zm302.32,270.73H113.941v42.464H386.088V435.107Z"/>
    </g>
  </g>
</svg>
