<svg xmlns="http://www.w3.org/2000/svg" width="100" height="100" viewBox="0 0 100 100">
  <defs>
    <style>
      .cls-1 {
        fill: rgba(0,0,0,0);
      }

      .cls-2 {
        fill: #456b7a;
      }
    </style>
  </defs>
  <g id="Group_47" data-name="Group 47" transform="translate(-2233 601)">
    <path id="Path_38" data-name="Path 38" class="cls-1" d="M0,0H100V100H0Z" transform="translate(2233 -601)"/>
    <path id="Path_32" data-name="Path 32" class="cls-2" d="M95,25a4.724,4.724,0,0,0-5,5V75A15.043,15.043,0,0,1,75,90H45A15,15,0,0,1,30.5,79L35,70A14.732,14.732,0,0,0,50,55V27.5A2.362,2.362,0,0,0,47.5,25H45V5a5.01,5.01,0,0,0-5-5,4.724,4.724,0,0,0-5,5V25H15V5a5.01,5.01,0,0,0-5-5A4.724,4.724,0,0,0,5,5V25H2.5A2.362,2.362,0,0,0,0,27.5V55A14.732,14.732,0,0,0,15,70l5.5,10A25.149,25.149,0,0,0,45,100H75a25.073,25.073,0,0,0,25-25V30A5.01,5.01,0,0,0,95,25ZM25,55a5.01,5.01,0,0,1-5-5,4.724,4.724,0,0,1,5-5,5.01,5.01,0,0,1,5,5A5.377,5.377,0,0,1,25,55Z" transform="translate(2233 -601)"/>
  </g>
</svg>
