<svg xmlns="http://www.w3.org/2000/svg" width="550" height="500" viewBox="0 0 550 500">
  <defs>
    <style>
      .cls-1 {
        fill: rgba(0,0,0,0);
      }

      .cls-2 {
        fill: #456b7a;
      }
    </style>
  </defs>
  <g id="Group_37" data-name="Group 37" transform="translate(-1292 1484)">
    <g id="Group_36" data-name="Group 36" transform="translate(-183 221)">
      <path id="Path_18" data-name="Path 18" class="cls-1" d="M0,0H550V500H0Z" transform="translate(1475 -1705)"/>
      <g id="electricity" transform="translate(1498.969 -1705)">
        <path id="Path_7" data-name="Path 7" class="cls-2" d="M202.717,195.545a7.5,7.5,0,0,0-7.5-7.5H100.412a7.5,7.5,0,1,0,0,15h94.805A7.5,7.5,0,0,0,202.717,195.545Z" transform="translate(0 -4.54)"/>
        <path id="Path_8" data-name="Path 8" class="cls-2" d="M115.413,223.679a7.5,7.5,0,0,0,0,15h64.805a7.5,7.5,0,1,0,0-15Z" transform="translate(-2.058 -5.401)"/>
        <path id="Path_9" data-name="Path 9" class="cls-2" d="M468.469,185.078a7.5,7.5,0,0,0-7.5,7.5V504.5a7.5,7.5,0,0,0,15,0V192.578A7.5,7.5,0,0,0,468.469,185.078Z" transform="translate(-10.311 -12)"/>
        <path id="Path_10" data-name="Path 10" class="cls-2" d="M404.454.374h-68.6a61.274,61.274,0,0,0-61.2,61.205V438.8a19.233,19.233,0,0,1-19.212,19.212H185.4A19.233,19.233,0,0,1,166.191,438.8V401.23h14.518a22.021,22.021,0,0,0,22-22V366.679a70.438,70.438,0,0,0,51.653-67.789V273.669a7.324,7.324,0,1,0-14.648,0V298.89a55.739,55.739,0,0,1-55.676,55.677H106.353A55.739,55.739,0,0,1,50.677,298.89v-135.4H239.71v80.9a7.324,7.324,0,0,0,14.648,0v-82.8a12.759,12.759,0,0,0-12.744-12.745h-2.462V136.205a17.951,17.951,0,0,0-17.931-17.931h-12.6V21.036a21.035,21.035,0,1,0-42.07,0v97.238h-42.72V21.036a21.036,21.036,0,1,0-42.071,0V43.476a7.324,7.324,0,1,0,14.648,0V21.036a6.387,6.387,0,1,1,12.774,0v97.237H96.413V72.76a7.324,7.324,0,0,0-14.648,0v45.515h-12.6a17.951,17.951,0,0,0-17.931,17.931v12.633H48.775a12.759,12.759,0,0,0-12.744,12.745V298.89a70.438,70.438,0,0,0,51.653,67.789v12.555a22.021,22.021,0,0,0,22,22H124.2V438.8A61.273,61.273,0,0,0,185.4,500h70.032a61.273,61.273,0,0,0,61.2-61.2V61.579a19.234,19.234,0,0,1,19.212-19.213h68.6a19.234,19.234,0,0,1,19.212,19.213v431.1a7.324,7.324,0,1,0,14.648,0V61.579a33.9,33.9,0,0,0-33.86-33.861h-68.6a33.9,33.9,0,0,0-33.86,33.861V438.8a46.608,46.608,0,0,1-46.556,46.556H185.4A46.608,46.608,0,0,1,138.848,438.8V401.231h12.7V438.8a33.9,33.9,0,0,0,33.86,33.86h70.032A33.9,33.9,0,0,0,289.3,438.8V61.579a46.609,46.609,0,0,1,46.556-46.557h68.6A46.609,46.609,0,0,1,451.01,61.579v97.2a7.324,7.324,0,1,0,14.648,0v-97.2A61.275,61.275,0,0,0,404.454.374ZM181.2,21.036a6.387,6.387,0,1,1,12.774,0v97.238H181.2ZM65.885,136.206a3.286,3.286,0,0,1,3.282-3.282H221.222a3.286,3.286,0,0,1,3.282,3.282v12.633H65.885Zm43.8,250.376a7.357,7.357,0,0,1-7.349-7.349V369.091c3.39.193,82.349.192,85.727,0v10.143a7.357,7.357,0,0,1-7.349,7.349H109.681Z"/>
      </g>
    </g>
  </g>
</svg>
