<svg xmlns="http://www.w3.org/2000/svg" width="100" height="100" viewBox="0 0 100 100">
  <defs>
    <style>
      .cls-1 {
        fill: rgba(0,0,0,0);
      }

      .cls-2 {
        fill: #456b7a;
      }
    </style>
  </defs>
  <g id="Group_48" data-name="Group 48" transform="translate(-2045 601)">
    <path id="Path_37" data-name="Path 37" class="cls-1" d="M0,0H100V100H0Z" transform="translate(2045 -601)"/>
    <path id="Union_4" data-name="Union 4" class="cls-2" d="M41.311,67.437a8.668,8.668,0,1,1,8.668,8.64A8.663,8.663,0,0,1,41.311,67.437ZM62.853,55.254a18.227,18.227,0,0,0-25.715-.032,5.834,5.834,0,0,1-8.255-8.246,29.942,29.942,0,0,1,42.243.056,5.832,5.832,0,0,1-8.274,8.222ZM76.1,42.062a37,37,0,0,0-52.2-.037,5.833,5.833,0,1,1-8.258-8.24,48.716,48.716,0,0,1,68.724.048A5.833,5.833,0,0,1,76.1,42.062Zm13.93-13.878a56.748,56.748,0,0,0-80.056-.04,5.832,5.832,0,1,1-8.26-8.236,68.468,68.468,0,0,1,96.583.047,5.832,5.832,0,0,1-8.267,8.229Z" transform="translate(2045 -589)"/>
  </g>
</svg>
